<?xml version="1.0" encoding="utf-8"?>
<!-- Generator: Adobe Illustrator 23.0.0, SVG Export Plug-In . SVG Version: 6.00 Build 0)  -->
<svg version="1.1"
	 id="svg8" xmlns:cc="http://creativecommons.org/ns#" xmlns:dc="http://purl.org/dc/elements/1.1/" xmlns:inkscape="http://www.inkscape.org/namespaces/inkscape" xmlns:rdf="http://www.w3.org/1999/02/22-rdf-syntax-ns#" xmlns:sodipodi="http://sodipodi.sourceforge.net/DTD/sodipodi-0.dtd" xmlns:svg="http://www.w3.org/2000/svg"
	 xmlns="http://www.w3.org/2000/svg" xmlns:xlink="http://www.w3.org/1999/xlink" x="0px" y="0px" viewBox="0 0 5000 5000"
	 style="enable-background:new 0 0 5000 5000;" xml:space="preserve">
<style type="text/css">
	.st0{fill:#80B3FF;}
	.st1{fill:#FF9955;}
	.st2{fill:#FF5555;}
	.st3{fill:#87DE87;}
	.st4{fill:#FFE680;}
	.st5{fill:#AACCFF;}
	.st6{fill:#5599FF;}
	.st7{fill:#FFB380;}
	.st8{fill:#D38D5F;}
	.st9{fill:#AFE9AF;}
	.st10{fill:#6F916F;}
	.st11{fill:#FFF6D5;}
	.st12{fill:#DECD87;}
	.st13{fill:#FF8080;}
	.st14{fill:#C83737;}
	.st15{fill:#FFDD55;}
	.st16{fill:none;stroke:#000000;stroke-width:50;stroke-linecap:round;stroke-linejoin:round;}
	.st17{fill:#D3BC5F;}
	.st18{fill-opacity:0;}
	.st19{fill:#DEAA87;}
	.st20{fill:#C87137;}
	.st21{fill:#FFEEAA;}
	.st22{fill:#D7E3F4;}
	.st23{fill:#A05A2C;}
	.st24{fill:#FFFFFF;}
	.st25{fill:#AA87DE;}
	.st26{fill:#C6AFE9;}
	.st27{fill:#7C6F91;}
	.st28{fill:#FFCCAA;}
	.st29{fill:#FFE6D5;}
	.st30{fill:#D35F5F;}
	.st31{fill:#F4D7D7;}
	.st32{fill:#ECECEC;}
	.st33{fill:none;stroke:#000000;stroke-width:50;}
	.st34{fill-opacity:0;stroke:#000000;stroke-width:50;stroke-linecap:round;stroke-linejoin:round;}
	.st35{fill:#D5E5FF;}
	.st36{fill:#93A7AC;}
	.st37{fill:#6F917C;}
	.st38{fill:#536C53;}
	.st39{fill:#FF00FF;}
	.st40{fill:#BCD35F;}
	.st41{fill:#E9C6AF;}
	.st42{fill:#DDE9AF;}
</style>
<g>
	<path id="rect1239-1" inkscape:connector-curvature="0" class="st28" d="M1483.6,2022.2h2023.7v2044.2H1483.6V2022.2z"/>
	<path id="path1274-1" inkscape:connector-curvature="0" class="st3" d="M3279.7,1327.1c-19.8,0-106.8,173.7-158,297.1h316.1
		C3386.5,1500.8,3299.5,1327.1,3279.7,1327.1z"/>
	<path id="rect1276-5" inkscape:connector-curvature="0" class="st3" d="M3124.3,1624.2c-22.5,0-40.7,18.2-40.7,40.8v357.2h392.1
		V1665c0-22.6-18.1-40.8-40.7-40.8H3124.3z"/>
	<path id="path1301-7" inkscape:connector-curvature="0" sodipodi:nodetypes="sccs" class="st0" d="M2887.6,828.5
		c-19.8,0-106.8,173.7-158,297.1h316.1C2994.4,1002.2,2907.3,828.5,2887.6,828.5L2887.6,828.5z"/>
	<path id="path1303-0" inkscape:connector-curvature="0" sodipodi:nodetypes="ssccsss" class="st0" d="M2732.2,1125.6
		c-22.5,0-40.7,18.2-40.7,40.8v855.8h392.1v-855.8c0-22.6-18.1-40.8-40.7-40.8L2732.2,1125.6z"/>
	<path id="path1305-6" inkscape:connector-curvature="0" class="st4" d="M2495.4,1327.1c-19.8,0-106.8,173.7-158,297.1h316.1
		C2602.2,1500.8,2515.2,1327.1,2495.4,1327.1z"/>
	<path id="path1307-4" inkscape:connector-curvature="0" class="st4" d="M2340.1,1624.2c-22.5,0-40.7,18.2-40.7,40.8v357.2h392.1
		V1665c0-22.6-18.1-40.8-40.7-40.8H2340.1z"/>
	<path id="path1309-0" inkscape:connector-curvature="0" class="st1" d="M2103.3,1327.1c-19.8,0-106.8,173.7-158,297.1h316.1
		C2210.1,1500.8,2123.1,1327.1,2103.3,1327.1z"/>
	<path id="path1311-7" inkscape:connector-curvature="0" class="st1" d="M1947.9,1624.2c-22.5,0-40.7,18.2-40.7,40.8v357.2h392.1
		V1665c0-22.6-18.1-40.8-40.7-40.8H1947.9z"/>
	<path id="path1313-6" inkscape:connector-curvature="0" class="st2" d="M1711.2,1327.1c-19.8,0-106.8,173.7-158,297.1h316.1
		C1818,1500.8,1731,1327.1,1711.2,1327.1z"/>
	<path id="path1315-4" inkscape:connector-curvature="0" class="st2" d="M1555.8,1624.2c-22.5,0-40.7,18.2-40.7,40.8v357.2h392.1
		V1665c0-22.6-18.1-40.8-40.7-40.8H1555.8z"/>
	<path id="path1325-6" inkscape:connector-curvature="0" class="st4" d="M2299.4,2381.4v457.1h392.1v-457.1H2299.4z"/>
	<path id="path1327-0" inkscape:connector-curvature="0" class="st0" d="M2691.5,2381.4v457.1h324.1c37.7,0,68-27.8,68-62.4v-332.2
		c0-34.6-30.4-62.4-68-62.4L2691.5,2381.4z"/>
	<path id="path1335-2" inkscape:connector-curvature="0" class="st1" d="M2299.4,2381.4v457.1h-324.1c-37.7,0-68-27.8-68-62.4
		v-332.2c0-34.6,30.4-62.4,68-62.4H2299.4z"/>
	<path id="path1982" inkscape:connector-curvature="0" sodipodi:nodetypes="sccs" class="st25" d="M3610.6,2139.9
		c-19.1,5.1-58.2,195.4-75.7,327.9l305.3-81.8C3758.7,2280,3629.7,2134.8,3610.6,2139.9z"/>
	<path id="path1984" inkscape:connector-curvature="0" sodipodi:nodetypes="ssccsss" class="st25" d="M3537.4,2467.1
		c-21.8,5.8-30.7,42.7-20,82.8l406.3,1516.5l378.8-101.5l-406.3-1516.5c-10.7-40-36.9-67.5-58.7-61.7L3537.4,2467.1z"/>
	<path id="path1449" inkscape:connector-curvature="0" class="st8" d="M3380.5,2022.2h126.8v2044.2h-126.8V2022.2z"/>
	<path id="path1453" inkscape:connector-curvature="0" class="st29" d="M1483.6,2022.2h126.8v2044.2h-126.8V2022.2z"/>
	<path id="rect1455" class="st8" d="M1981.8,3190.9h1027.3c14,0,25.4,11.4,25.4,25.4v0c0,14-11.4,25.4-25.4,25.4H1981.8
		c-14,0-25.4-11.4-25.4-25.4v0C1956.4,3202.2,1967.8,3190.9,1981.8,3190.9z"/>
	<path id="rect1457" class="st8" d="M2132.1,3462.7h726.8c14,0,25.4,11.4,25.4,25.4v0c0,14-11.4,25.4-25.4,25.4h-726.8
		c-14,0-25.4-11.4-25.4-25.4v0C2106.6,3474,2118,3462.7,2132.1,3462.7z"/>
	<path id="rect1459" class="st8" d="M1981.8,3737.6h1027.3c14,0,25.4,11.4,25.4,25.4v0c0,14-11.4,25.4-25.4,25.4H1981.8
		c-14,0-25.4-11.4-25.4-25.4v0C1956.4,3748.9,1967.8,3737.6,1981.8,3737.6z"/>
	<path id="path1461" inkscape:connector-curvature="0" class="st22" d="M2728.2,1125.6c-22.5,0-40.7,18.2-40.7,40.8v855.8h79.6
		v-855.8c0-22.6,18.1-40.8,40.7-40.8H2728.2z"/>
	<path id="path1466" inkscape:connector-curvature="0" class="st6" d="M3046.9,1125.6c22.5,0,40.7,18.2,40.7,40.8v855.8h-79.6
		v-855.8c0-22.6-18.1-40.8-40.7-40.8H3046.9z"/>
	<path id="path1468" inkscape:connector-curvature="0" class="st13" d="M1555.8,1624.2c-22.5,0-40.7,18.2-40.7,40.8v357.2h76.6V1665
		c0-22.6,18.1-40.8,40.7-40.8H1555.8z"/>
	<path id="path1473" inkscape:connector-curvature="0" class="st14" d="M1866.6,1624.2c22.5,0,40.7,18.2,40.7,40.8v357.2h-76.6V1665
		c0-22.6-18.1-40.8-40.7-40.8H1866.6z"/>
	<path id="path1475" inkscape:connector-curvature="0" class="st7" d="M1945.1,1624.2c-22.5,0-40.7,18.2-40.7,40.8v357.2h76.6V1665
		c0-22.6,18.1-40.8,40.7-40.8H1945.1z"/>
	<path id="path1477" inkscape:connector-curvature="0" class="st20" d="M2255.9,1624.2c22.5,0,40.7,18.2,40.7,40.8v357.2H2220V1665
		c0-22.6-18.1-40.8-40.7-40.8H2255.9z"/>
	<path id="path1479" inkscape:connector-curvature="0" class="st11" d="M2340.7,1624.2c-22.5,0-40.7,18.2-40.7,40.8v357.2h76.6V1665
		c0-22.6,18.1-40.8,40.7-40.8H2340.7z"/>
	<path id="path1481" inkscape:connector-curvature="0" class="st12" d="M2651.4,1624.2c22.5,0,40.7,18.2,40.7,40.8v357.2h-76.6V1665
		c0-22.6-18.1-40.8-40.7-40.8H2651.4z"/>
	<path id="path1483" inkscape:connector-curvature="0" class="st9" d="M3123.9,1624.2c-22.5,0-40.7,18.2-40.7,40.8v357.2h76.6V1665
		c0-22.6,18.1-40.8,40.7-40.8H3123.9z"/>
	<path id="path1485" inkscape:connector-curvature="0" class="st10" d="M3434.7,1624.2c22.5,0,40.7,18.2,40.7,40.8v357.2h-76.6V1665
		c0-22.6-18.1-40.8-40.7-40.8H3434.7z"/>
	<path id="path1487" inkscape:connector-curvature="0" class="st11" d="M2340.7,2382.9c-22.5,0-40.7,20.7-40.7,46.5v407.7h76.6
		v-407.7c0-25.8,18.1-46.5,40.7-46.5H2340.7z"/>
	<path id="path1489" inkscape:connector-curvature="0" class="st12" d="M2651.4,2382.9c22.5,0,40.7,20.7,40.7,46.5v407.7h-76.6
		v-407.7c0-25.8-18.1-46.5-40.7-46.5H2651.4z"/>
	<path id="path1491" inkscape:connector-curvature="0" class="st7" d="M1946.9,2382.9c-22.5,0-40.7,20.7-40.7,46.5v407.7h76.6
		v-407.7c0-25.8,18.1-46.5,40.7-46.5H1946.9z"/>
	<path id="path1493" inkscape:connector-curvature="0" class="st20" d="M2257.7,2382.9c22.5,0,40.7,20.7,40.7,46.5v407.7h-76.6
		v-407.7c0-25.8-18.1-46.5-40.7-46.5H2257.7z"/>
	<path id="path1495" inkscape:connector-curvature="0" class="st22" d="M2731.9,2382.9c-22.5,0-40.7,20.7-40.7,46.5v407.7h76.6
		v-407.7c0-25.8,18.1-46.5,40.7-46.5H2731.9z"/>
	<path id="path1497" inkscape:connector-curvature="0" class="st6" d="M3042.7,2382.9c22.5,0,40.7,20.7,40.7,46.5v407.7h-76.6
		v-407.7c0-25.8-18.1-46.5-40.7-46.5H3042.7z"/>
	<path id="path1500" inkscape:connector-curvature="0" class="st26" d="M3843.8,2385.9c-2.1,0-4.2,0.2-6.2,0.8l-300.2,80.4
		c-3.6,1-6.8,2.8-9.7,5.3l237.8-63.7c21.8-5.8,47.9,21.7,58.7,61.7l405.7,1514l72.7-19.5l-406.3-1516.5
		C3886.5,2412.1,3864.1,2386.1,3843.8,2385.9L3843.8,2385.9z"/>
	<path id="path1505" inkscape:connector-curvature="0" class="st27" d="M3958.4,4056.2c2.1,0,4.2-0.2,6.2-0.8l300.2-80.4
		c3.6-1,6.8-2.8,9.7-5.3l-237.8,63.7c-21.8,5.8-47.9-21.7-58.7-61.7l-405.7-1514l-72.7,19.5L3906,3993.8
		C3915.7,4030,3938.1,4056,3958.4,4056.2L3958.4,4056.2z"/>
	<path id="path1512" inkscape:connector-curvature="0" class="st13" d="M1711.2,1327.1c-19.8,0-106.8,173.7-158,297.1h16.8
		c50.7-93.3,131.1-217.2,149.9-217.2c18.5,0,97.3,121,148.1,214C1816.4,1497.7,1730.8,1327.1,1711.2,1327.1L1711.2,1327.1z"/>
	<path id="path1515" inkscape:connector-curvature="0" class="st7" d="M2104,1327.1c-19.8,0-106.8,173.7-158,297.1h16.8
		c50.7-93.3,131.1-217.2,149.9-217.2c18.5,0,97.3,121,148.1,214C2209.3,1497.7,2123.6,1327.1,2104,1327.1z"/>
	<path id="path1517" inkscape:connector-curvature="0" class="st11" d="M2496.1,1327.1c-19.8,0-106.8,173.7-158,297.1h16.8
		c50.7-93.3,131.1-217.2,149.9-217.2c18.5,0,97.3,121,148.1,214C2601.4,1497.7,2515.7,1327.1,2496.1,1327.1z"/>
	<path id="path1519" inkscape:connector-curvature="0" class="st22" d="M2888.3,828.5c-19.8,0-106.8,173.7-158,297.1h16.8
		c50.7-93.3,131.1-217.2,149.9-217.2c18.5,0,97.3,121,148.1,214C2993.5,999.1,2907.9,828.5,2888.3,828.5z"/>
	<path id="path1521" inkscape:connector-curvature="0" class="st9" d="M3280.4,1327.1c-19.8,0-106.8,173.7-158,297.1h16.8
		c50.7-93.3,131.1-217.2,149.9-217.2c18.5,0,97.3,121,148.1,214C3385.7,1497.7,3300,1327.1,3280.4,1327.1L3280.4,1327.1z"/>
	<path id="path1523" inkscape:connector-curvature="0" class="st26" d="M3610.6,2139.9c-19.1,5.1-58.2,195.4-75.7,327.9l16.2-4.3
		c24.8-103.3,70.4-243.8,88.5-248.6c17.9-4.8,125.3,91.7,198.4,168.3C3756.5,2277.5,3629.6,2134.9,3610.6,2139.9L3610.6,2139.9z"/>
	<path id="path1586" inkscape:connector-curvature="0" class="st29" d="M1687.4,2351.1c0,74.6-34.5,135.2-77,135.2
		c-42.5,0-77-60.5-77-135.2l0,0c0-74.6,34.5-135.2,77-135.2l0,0C1652.9,2215.9,1687.4,2276.4,1687.4,2351.1z"/>
	<path id="path1591" inkscape:connector-curvature="0" class="st8" d="M3470.4,3341.4c0,81.1-40.3,146.9-89.9,146.9
		c-49.7,0-89.9-65.8-89.9-146.9c0-81.1,40.3-146.9,89.9-146.9C3430.2,3194.5,3470.4,3260.3,3470.4,3341.4z"/>
	<path id="path1598" inkscape:connector-curvature="0" class="st8" d="M2214.3,3275.1c-32.2,0-58.2-15-58.2-33.4
		c0-18.5,26.1-33.4,58.2-33.4s58.2,15,58.2,33.4C2272.5,3260.1,2246.5,3275.1,2214.3,3275.1z"/>
	<path id="path1601" inkscape:connector-curvature="0" class="st29" d="M1665.2,3656.2c0,51.4-24.5,93-54.8,93
		c-30.3,0-54.8-41.6-54.8-93c0-51.4,24.5-93,54.8-93l0,0C1640.7,3563.2,1665.2,3604.8,1665.2,3656.2z"/>
	<path id="path1603" inkscape:connector-curvature="0" class="st22" d="M2795,2578.5c0,27.2-12.2,49.2-27.3,49.2
		c-15.1,0-27.3-22-27.3-49.2c0-27.2,12.2-49.2,27.3-49.2C2782.8,2529.3,2795,2551.3,2795,2578.5z"/>
	<path id="path1606" inkscape:connector-curvature="0" class="st12" d="M2642.8,2682.4c0,27.2-12.2,49.2-27.3,49.2
		s-27.3-22-27.3-49.2c0-27.2,12.2-49.2,27.3-49.2C2630.6,2633.2,2642.8,2655.2,2642.8,2682.4z"/>
	<path id="path1608" inkscape:connector-curvature="0" class="st18" d="M2642.8,2682.4c0,27.2-12.2,49.2-27.3,49.2
		s-27.3-22-27.3-49.2c0-27.2,12.2-49.2,27.3-49.2C2630.6,2633.2,2642.8,2655.2,2642.8,2682.4z"/>
	<path id="path1610" inkscape:connector-curvature="0" class="st20" d="M2253.2,2509.5c0,29-14.1,52.5-31.4,52.5
		c-17.3,0-31.4-23.5-31.4-52.5c0-29,14.1-52.5,31.4-52.5C2239.1,2457,2253.2,2480.5,2253.2,2509.5z"/>
	
		<path id="path2685-8" inkscape:connector-curvature="0" inkscape:transform-center-x="4.3676448e-06" inkscape:transform-center-y="-3.0274907e-06" class="st15" d="
		M2306.9,846.4c-11.6,0-39.1-137.1-47.3-145.3c-8.2-8.2-145.3-35.7-145.3-47.3c0-11.6,137.1-39.1,145.3-47.3
		c8.2-8.2,35.7-145.3,47.3-145.3c11.6,0,39.1,137.1,47.3,145.3s145.3,35.7,145.3,47.3c0,11.6-137.1,39.1-145.3,47.3
		C2346,709.3,2318.5,846.4,2306.9,846.4L2306.9,846.4z"/>
	
		<path id="path2687-7" inkscape:connector-curvature="0" inkscape:transform-center-x="4.3676448e-06" inkscape:transform-center-y="-3.0274907e-06" class="st15" d="
		M819.5,2602.1c-11.6,0-39.1-137.1-47.3-145.3c-8.2-8.2-145.3-35.7-145.3-47.3c0-11.6,137.1-39.1,145.3-47.3
		c8.2-8.2,35.7-145.3,47.3-145.3c11.6,0,39.1,137.1,47.3,145.3c8.2,8.2,145.3,35.7,145.3,47.3c0,11.6-137.1,39.1-145.3,47.3
		C858.6,2465.1,831,2602.1,819.5,2602.1z"/>
	
		<path id="path2689-4" inkscape:connector-curvature="0" inkscape:transform-center-x="4.3676448e-06" inkscape:transform-center-y="-3.0274907e-06" class="st15" d="
		M1173.8,4538.7c-11.6,0-39.1-137.1-47.3-145.3c-8.2-8.2-145.3-35.7-145.3-47.3c0-11.6,137.1-39.1,145.3-47.3
		c8.2-8.2,35.7-145.3,47.3-145.3c11.6,0,39.1,137.1,47.3,145.3c8.2,8.2,145.3,35.7,145.3,47.3c0,11.6-137.1,39.1-145.3,47.3
		C1213,4401.7,1185.4,4538.7,1173.8,4538.7z"/>
	
		<path id="path2691-8" inkscape:connector-curvature="0" inkscape:transform-center-x="4.3676448e-06" inkscape:transform-center-y="-3.0274907e-06" class="st15" d="
		M4180.5,2014.6c-11.6,0-39.1-137.1-47.3-145.3c-8.2-8.2-145.3-35.7-145.3-47.3c0-11.6,137.1-39.1,145.3-47.3
		c8.2-8.2,35.7-145.3,47.3-145.3c11.6,0,39.1,137.1,47.3,145.3c8.2,8.2,145.3,35.7,145.3,47.3c0,11.6-137.1,39.1-145.3,47.3
		C4219.7,1877.5,4192.1,2014.6,4180.5,2014.6z"/>
	<path id="path1274" inkscape:connector-curvature="0" class="st16" d="M3279.7,1327.1c-19.8,0-106.8,173.7-158,297.1h316.1
		C3386.5,1500.8,3299.5,1327.1,3279.7,1327.1L3279.7,1327.1z"/>
	<path id="rect1276" inkscape:connector-curvature="0" class="st16" d="M3124.3,1624.2c-22.5,0-40.7,18.2-40.7,40.8v357.2h392.1
		V1665c0-22.6-18.1-40.8-40.7-40.8H3124.3z"/>
	<path id="path1301" inkscape:connector-curvature="0" sodipodi:nodetypes="sccs" class="st16" d="M2887.6,828.5
		c-19.8,0-106.8,173.7-158,297.1h316.1C2994.4,1002.2,2907.3,828.5,2887.6,828.5L2887.6,828.5z"/>
	<path id="path1303" inkscape:connector-curvature="0" sodipodi:nodetypes="ssccsss" class="st16" d="M2732.2,1125.6
		c-22.5,0-40.7,18.2-40.7,40.8v855.8h392.1v-855.8c0-22.6-18.1-40.8-40.7-40.8H2732.2z"/>
	<path id="path1305" inkscape:connector-curvature="0" class="st16" d="M2495.4,1327.1c-19.8,0-106.8,173.7-158,297.1h316.1
		C2602.2,1500.8,2515.2,1327.1,2495.4,1327.1L2495.4,1327.1z"/>
	<path id="path1307" inkscape:connector-curvature="0" class="st16" d="M2340.1,1624.2c-22.5,0-40.7,18.2-40.7,40.8v357.2h392.1
		V1665c0-22.6-18.1-40.8-40.7-40.8H2340.1z"/>
	<path id="path1309" inkscape:connector-curvature="0" class="st16" d="M2103.3,1327.1c-19.8,0-106.8,173.7-158,297.1h316.1
		C2210.1,1500.8,2123.1,1327.1,2103.3,1327.1L2103.3,1327.1z"/>
	<path id="path1311" inkscape:connector-curvature="0" class="st16" d="M1947.9,1624.2c-22.5,0-40.7,18.2-40.7,40.8v357.2h392.1
		V1665c0-22.6-18.1-40.8-40.7-40.8H1947.9z"/>
	<path id="path1313" inkscape:connector-curvature="0" class="st16" d="M1711.2,1327.1c-19.8,0-106.8,173.7-158,297.1h316.1
		C1818,1500.8,1731,1327.1,1711.2,1327.1L1711.2,1327.1z"/>
	<path id="path1315" inkscape:connector-curvature="0" class="st16" d="M1555.8,1624.2c-22.5,0-40.7,18.2-40.7,40.8v357.2h392.1
		V1665c0-22.6-18.1-40.8-40.7-40.8H1555.8z"/>
	<path id="path1325" inkscape:connector-curvature="0" class="st16" d="M2299.4,2381.4v457.1h392.1v-457.1H2299.4z"/>
	<path id="path1327" inkscape:connector-curvature="0" class="st16" d="M2691.5,2381.4v457.1h324.1c37.7,0,68-27.8,68-62.4v-332.2
		c0-34.6-30.4-62.4-68-62.4H2691.5z"/>
	<path id="path1358" inkscape:connector-curvature="0" class="st16" d="M1978.2,3183.1h1034.4"/>
	<path id="path1360" inkscape:connector-curvature="0" class="st16" d="M2135.1,3457.4h720.6"/>
	<path id="path1362" inkscape:connector-curvature="0" class="st16" d="M1978.2,3731.7h1034.4"/>
	<path id="rect1239" inkscape:connector-curvature="0" class="st16" d="M1483.6,2022.2h2023.7v2044.2H1483.6V2022.2z"/>
	<path id="path1959" inkscape:connector-curvature="0" sodipodi:nodetypes="ssccccccsss" class="st16" d="M3537.4,2467.1
		c-21.8,5.8-34.6,28.1-28.8,49.9l59.2,220.8l225.8,842.8l130.1,485.7l378.8-101.5l-130.1-485.7l-225.8-842.8l-59.2-220.8
		c-5.8-21.8-28.1-34.7-49.9-28.8L3537.4,2467.1z"/>
	<path id="path1966" inkscape:connector-curvature="0" sodipodi:nodetypes="sccs" class="st16" d="M3608.1,2140.6
		c-19.1,5.1-58.2,195.4-75.7,327.9l305.3-81.8C3756.2,2280.7,3627.2,2135.5,3608.1,2140.6z"/>
	<path id="path1335" inkscape:connector-curvature="0" class="st34" d="M2299.4,2381.4v457.1h-324.1c-37.7,0-68-27.8-68-62.4v-332.2
		c0-34.6,30.4-62.4,68-62.4L2299.4,2381.4z"/>
	<path id="rect1337" inkscape:connector-curvature="0" d="M2691.5,1257.8h392.1v125.3h-392.1V1257.8z"/>
	<path id="rect1342" inkscape:connector-curvature="0" d="M3083.6,1761.3h392.1v125.3h-392.1V1761.3z"/>
	<path id="rect1344" inkscape:connector-curvature="0" d="M2299.4,1761.3h392.1v125.3h-392.1V1761.3z"/>
	<path id="rect1346" inkscape:connector-curvature="0" d="M1907.2,1761.3h392.1v125.3h-392.1V1761.3z"/>
	<path id="rect1348" inkscape:connector-curvature="0" d="M1515.1,1761.3h392.1v125.3h-392.1V1761.3z"/>
	<path id="path1350" inkscape:connector-curvature="0" d="M2980.9,1698.2c0,83.4-41.8,151-93.3,151s-93.3-67.6-93.3-151
		s41.8-151,93.3-151S2980.9,1614.8,2980.9,1698.2z"/>
	<path id="rect1968" inkscape:connector-curvature="0" d="M3533,2607.9l378.8-101.5l32.4,121l-378.8,101.5L3533,2607.9z"/>
	<path id="ellipse1978" inkscape:connector-curvature="0" d="M3933.4,2984.2c21.6,80.5-1.3,156.7-51.1,170l0,0
		c-49.8,13.3-107.6-41.1-129.2-121.7l0,0c-21.6-80.5,1.3-156.7,51.1-170C3854,2849.1,3911.9,2903.6,3933.4,2984.2z"/>
	<path id="rect1980" inkscape:connector-curvature="0" d="M3855.9,3812.9l378.8-101.5l32.4,121l-378.8,101.5L3855.9,3812.9z"/>
	
		<path id="path2685" inkscape:connector-curvature="0" inkscape:transform-center-x="4.3676448e-06" inkscape:transform-center-y="-3.0274907e-06" class="st16" d="
		M2306.9,846.4c-11.6,0-39.1-137.1-47.3-145.3c-8.2-8.2-145.3-35.7-145.3-47.3c0-11.6,137.1-39.1,145.3-47.3
		c8.2-8.2,35.7-145.3,47.3-145.3c11.6,0,39.1,137.1,47.3,145.3s145.3,35.7,145.3,47.3c0,11.6-137.1,39.1-145.3,47.3
		C2346,709.3,2318.5,846.4,2306.9,846.4z"/>
	
		<path id="path2687" inkscape:connector-curvature="0" inkscape:transform-center-x="4.3676448e-06" inkscape:transform-center-y="-3.0274907e-06" class="st16" d="
		M819.5,2602.1c-11.6,0-39.1-137.1-47.3-145.3c-8.2-8.2-145.3-35.7-145.3-47.3c0-11.6,137.1-39.1,145.3-47.3
		c8.2-8.2,35.7-145.3,47.3-145.3c11.6,0,39.1,137.1,47.3,145.3c8.2,8.2,145.3,35.7,145.3,47.3s-137.1,39.1-145.3,47.3
		C858.6,2465.1,831,2602.1,819.5,2602.1z"/>
	
		<path id="path2689" inkscape:connector-curvature="0" inkscape:transform-center-x="4.3676448e-06" inkscape:transform-center-y="-3.0274907e-06" class="st16" d="
		M1173.8,4538.7c-11.6,0-39.1-137.1-47.3-145.3c-8.2-8.2-145.3-35.7-145.3-47.3c0-11.6,137.1-39.1,145.3-47.3
		c8.2-8.2,35.7-145.3,47.3-145.3c11.6,0,39.1,137.1,47.3,145.3s145.3,35.7,145.3,47.3c0,11.6-137.1,39.1-145.3,47.3
		C1213,4401.7,1185.4,4538.7,1173.8,4538.7z"/>
	
		<path id="path2691" inkscape:connector-curvature="0" inkscape:transform-center-x="4.3676448e-06" inkscape:transform-center-y="-3.0274907e-06" class="st16" d="
		M4180.5,2014.6c-11.6,0-39.1-137.1-47.3-145.3c-8.2-8.2-145.3-35.7-145.3-47.3s137.1-39.1,145.3-47.3
		c8.2-8.2,35.7-145.3,47.3-145.3c11.6,0,39.1,137.1,47.3,145.3c8.2,8.2,145.3,35.7,145.3,47.3s-137.1,39.1-145.3,47.3
		C4219.7,1877.5,4192.1,2014.6,4180.5,2014.6z"/>
	<circle id="circle2825" cx="1990.5" cy="839.3" r="41.5"/>
	<circle id="circle2827" cx="2530" cy="917" r="33.8"/>
	<circle id="circle2829" cx="1064.2" cy="2109.4" r="54"/>
	<circle id="circle2831" cx="1108.8" cy="2825.6" r="38.4"/>
	<circle id="circle2833" cx="912.4" cy="4037.3" r="54"/>
	<circle id="circle2835" cx="1610" cy="4362.2" r="38.4"/>
	<circle id="circle2837" cx="3711.3" cy="4223.8" r="31.7"/>
	<circle id="circle2839" cx="3504.7" cy="4443.7" r="57.2"/>
	<circle id="circle2841" cx="3867.4" cy="1360.4" r="57.2"/>
	<circle id="circle2843" cx="3978.6" cy="2054.6" r="27.5"/>
</g>
</svg>
