<?xml version="1.0" encoding="utf-8"?>
<!-- Generator: Adobe Illustrator 23.0.0, SVG Export Plug-In . SVG Version: 6.00 Build 0)  -->
<svg version="1.1"
	 id="svg8" xmlns:cc="http://creativecommons.org/ns#" xmlns:dc="http://purl.org/dc/elements/1.1/" xmlns:inkscape="http://www.inkscape.org/namespaces/inkscape" xmlns:rdf="http://www.w3.org/1999/02/22-rdf-syntax-ns#" xmlns:sodipodi="http://sodipodi.sourceforge.net/DTD/sodipodi-0.dtd" xmlns:svg="http://www.w3.org/2000/svg"
	 xmlns="http://www.w3.org/2000/svg" xmlns:xlink="http://www.w3.org/1999/xlink" x="0px" y="0px" viewBox="0 0 5000 5000"
	 style="enable-background:new 0 0 5000 5000;" xml:space="preserve">
<style type="text/css">
	.st0{fill:#80B3FF;}
	.st1{fill:#FF9955;}
	.st2{fill:#FF5555;}
	.st3{fill:#87DE87;}
	.st4{fill:#FFE680;}
	.st5{fill:#AACCFF;}
	.st6{fill:#5599FF;}
	.st7{fill:#FFB380;}
	.st8{fill:#D38D5F;}
	.st9{fill:#AFE9AF;}
	.st10{fill:#6F916F;}
	.st11{fill:#FFF6D5;}
	.st12{fill:#DECD87;}
	.st13{fill:#FF8080;}
	.st14{fill:#C83737;}
	.st15{fill:#FFDD55;}
	.st16{fill:none;stroke:#000000;stroke-width:50;stroke-linecap:round;stroke-linejoin:round;}
	.st17{fill:#D3BC5F;}
	.st18{fill-opacity:0;}
	.st19{fill:#DEAA87;}
	.st20{fill:#C87137;}
	.st21{fill:#FFEEAA;}
	.st22{fill:#D7E3F4;}
	.st23{fill:#A05A2C;}
	.st24{fill:#FFFFFF;}
	.st25{fill:#AA87DE;}
	.st26{fill:#C6AFE9;}
	.st27{fill:#7C6F91;}
	.st28{fill:#FFCCAA;}
	.st29{fill:#FFE6D5;}
	.st30{fill:#D35F5F;}
	.st31{fill:#F4D7D7;}
	.st32{fill:#ECECEC;}
	.st33{fill:none;stroke:#000000;stroke-width:50;}
	.st34{fill-opacity:0;stroke:#000000;stroke-width:50;stroke-linecap:round;stroke-linejoin:round;}
	.st35{fill:#D5E5FF;}
	.st36{fill:#93A7AC;}
	.st37{fill:#6F917C;}
	.st38{fill:#536C53;}
	.st39{fill:#FF00FF;}
	.st40{fill:#BCD35F;}
	.st41{fill:#E9C6AF;}
	.st42{fill:#DDE9AF;}
</style>
<g>
	
		<path id="path1510-2" inkscape:flatsided="false" inkscape:randomized="0" inkscape:rounded="0.0758206" inkscape:transform-center-x="6.5614085e-06" inkscape:transform-center-y="-0.00012429529" sodipodi:arg1="0.52019105" sodipodi:arg2="0.78199044" sodipodi:cx="666.64624" sodipodi:cy="2982.7522" sodipodi:r1="162.1003" sodipodi:r2="127.16373" sodipodi:sides="12" sodipodi:type="star" class="st1" d="
		M2997.6,1614c-6.9,12-169.6,22.3-179.3,32.1s-19,172.6-30.9,179.5c-11.9,6.9-158-65.4-171.4-61.8c-13.3,3.6-102.7,140-116.5,140
		c-13.8,0-104.1-135.7-117.5-139.2c-13.4-3.5-159,69.8-170.9,63s-22.3-169.6-32.1-179.3s-172.6-19-179.5-30.9
		c-6.9-11.9,65.4-158,61.8-171.3c-3.6-13.3-140-102.7-140-116.5c0-13.8,135.7-104.1,139.2-117.5c3.5-13.4-69.9-158.9-63-170.9
		c6.9-12,169.6-22.3,179.3-32.1s19-172.6,30.9-179.5c11.9-6.9,158,65.4,171.4,61.8c13.3-3.6,102.7-140,116.5-140
		c13.8,0,104.1,135.7,117.5,139.2s159-69.8,170.9-63c12,6.9,22.3,169.6,32.1,179.3s172.6,19,179.5,30.9
		c6.9,11.9-65.4,158-61.8,171.3c3.6,13.3,140,102.7,140,116.5c0,13.8-135.7,104.1-139.2,117.5
		C2931.1,1456.4,3004.5,1602,2997.6,1614z"/>
	
		<path id="path1729" inkscape:flatsided="false" inkscape:randomized="0" inkscape:rounded="0.0758206" inkscape:transform-center-x="6.5614084e-06" inkscape:transform-center-y="-0.00012663084" sodipodi:arg1="0.52019105" sodipodi:arg2="0.78199044" sodipodi:cx="666.64624" sodipodi:cy="2982.7522" sodipodi:r1="125.267" sodipodi:r2="98.268906" sodipodi:sides="12" sodipodi:type="star" class="st20" d="
		M2884,1548.9c-5.3,9.3-131,17.3-138.6,24.8c-7.5,7.6-14.7,133.4-23.9,138.7c-9.2,5.4-122.1-50.6-132.4-47.8
		c-10.3,2.8-79.4,108.2-90.1,108.2c-10.7,0-80.5-104.9-90.8-107.6c-10.3-2.7-122.8,54-132.1,48.7c-9.3-5.3-17.3-131-24.8-138.6
		c-7.6-7.5-133.4-14.7-138.7-23.9c-5.4-9.2,50.6-122.1,47.8-132.4c-2.8-10.3-108.2-79.4-108.2-90.1s104.9-80.5,107.6-90.8
		s-54-122.8-48.7-132.1c5.3-9.3,131-17.3,138.6-24.8c7.5-7.6,14.7-133.4,23.9-138.7c9.2-5.4,122.1,50.6,132.4,47.8
		c10.3-2.8,79.4-108.2,90.1-108.2c10.7,0,80.5,104.9,90.8,107.6c10.3,2.7,122.8-54,132.1-48.7s17.3,131,24.8,138.6
		c7.6,7.5,133.4,14.7,138.7,23.9c5.4,9.2-50.6,122.1-47.8,132.4c2.8,10.3,108.2,79.4,108.2,90.1s-104.9,80.5-107.6,90.8
		C2832.6,1427.1,2889.3,1539.6,2884,1548.9L2884,1548.9z"/>
	<path id="path1364-5" inkscape:connector-curvature="0" class="st35" d="M1142.8,3086.2c-187.1,17.4-324.1,185.5-306.2,375.4
		c0,0,0,0,0,0c1.7,16.7,4.6,33.3,8.6,49.6c-36.4-13.8-75.3-19.2-113.9-15.7c-142.4,13.3-246.8,141.3-233.1,285.9
		c13.7,144.6,140.2,251.1,282.6,237.8c28.2-2.7,55.8-10.2,81.7-22c42.9,108.1,150.6,175,264.8,164.4c101.6-9.6,188-78.8,220.5-176.9
		c42.6,37.1,98.2,55.1,154.1,49.9c62.5-5.9,118.8-40.2,153.1-93.4c43.8,45.3,105.3,68.2,167.4,62.5
		c114.1-10.6,197.6-113.1,186.7-228.9v0c-11-115.8-112.3-201-226.3-190.4c0,0,0,0,0,0c-19.5,1.9-38.6,6.5-56.7,13.8
		c-34.3-86.8-120.7-140.5-212.2-132.1c0,0,0,0-0.1,0c2.3-22.5,2.3-45.2,0.2-67.7C1496.1,3208.6,1329.8,3068.8,1142.8,3086.2
		C1142.8,3086.2,1142.8,3086.2,1142.8,3086.2L1142.8,3086.2z"/>
	<path id="path1426-2" inkscape:connector-curvature="0" class="st2" d="M2499.2,2221.6c-610.2,0.4-1168.7,342.6-1445.8,886
		c28.7-11.2,58.7-18.4,89.3-21.3l0,0c44.5-4,89.4,0.8,132,14.4c259.8-427.6,723.8-689,1224.4-689.7
		c500.5,0.8,964.4,262.2,1224,689.8c42.8-13.6,87.8-18.6,132.4-14.5h0c29.4,2.9,58.2,9.6,85.9,20.1
		C3664.7,2564.6,3107.9,2223.1,2499.2,2221.6L2499.2,2221.6z"/>
	<path id="path1422-2" inkscape:connector-curvature="0" class="st4" d="M2499.2,2410.9c-500.5,0.8-964.4,262.2-1224,689.8
		c61.3,19.4,116,55.9,157.8,105.3c224.3-375,629-604.9,1066.2-605.8c437.2,0.7,842,230.6,1066.4,605.6
		c41.9-49.4,96.7-85.9,158-105.2C3463.9,2673,2999.8,2411.6,2499.2,2410.9L2499.2,2410.9z"/>
	<path id="path1379-9" inkscape:connector-curvature="0" class="st3" d="M2499.2,2600.2c-437.2,0.7-842,230.6-1066.4,605.6
		c46,54.2,74.4,121.6,81.2,192.7c2.1,22.5,2,45.2-0.2,67.7c0,0,0,0,0.1,0c0.5,0,0.9,0,1.4-0.1c156.5-407.1,547.6-676,984-676.6
		c436.8,0.2,828.3,269.2,985,676.6c0.1,0,0.3,0,0.4,0c0,0,0,0,0.1,0c-2.3-22.5-2.3-45.2-0.2-67.7c6.8-71,35.1-138.2,81-192.5
		C3341.1,2831.1,2936.4,2601.1,2499.2,2600.2L2499.2,2600.2z"/>
	<path id="path1416-3" inkscape:connector-curvature="0" class="st0" d="M2499.2,2789.6c-436.8,0.2-828.3,269.2-985,676.6
		c66.7-6,132.2,21.1,176,72.7c127.1-336.5,449.1-559.4,809-560c359.9,0.3,682.2,222.9,809.6,559.4c43.6-50.9,108.4-77.7,174.5-72.1
		C3326.7,3059,2935.7,2790.1,2499.2,2789.6z"/>
	<path id="path1418-6" inkscape:connector-curvature="0" class="st25" d="M2499.2,2978.9c-359.9,0.3-682.2,222.9-809.6,559.4
		c15.4,17.8,27.7,38.1,36.4,60c18.2-7.3,37.3-11.9,56.7-13.8c29.7-2.7,59.6,1.2,87.7,11.3c102.1-257.8,351.2-427.3,628.7-427.6
		c277.4,0.4,526.4,169.9,628.5,427.7c28.2-10.2,58.2-14,88-11.4c19.5,1.9,38.6,6.5,56.7,13.8c8.6-21.7,20.8-41.7,35.9-59.4
		C3181.2,3202.4,2859.1,2979.5,2499.2,2978.9L2499.2,2978.9z"/>
	<path id="path1503-4" inkscape:connector-curvature="0" class="st4" d="M2788.8,1327.5c0,160.9-130.4,291.3-291.3,291.3l0,0
		c-160.9,0-291.3-130.4-291.3-291.3l0,0c0-160.9,130.4-291.3,291.3-291.3l0,0C2658.4,1036.2,2788.8,1166.6,2788.8,1327.5
		L2788.8,1327.5z"/>
	<path id="path1632" inkscape:connector-curvature="0" sodipodi:nodetypes="ccccccccc" class="st24" d="M1166.8,3084.8
		c-8,0.2-16,0.6-24,1.4l0,0c-187.1,17.4-324.1,185.5-306.2,375.4c1.1,11.3-54.8,44.2-52.6,55.3c17.6,3.8,84.2,37,145.8,35.2
		c-61.1-324.1,163-439.6,306.2-459.1C1222.4,3091.5,1180.6,3084.6,1166.8,3084.8L1166.8,3084.8z"/>
	<path id="path1630" inkscape:connector-curvature="0" sodipodi:nodetypes="cccccccc" class="st24" d="M743.6,3494.7
		c-4.1,0.2-8.2,0.4-12.2,0.8c-142.4,13.3-246.8,141.3-233.1,285.9c13.7,144.6,140.2,251.1,282.6,237.8c3.6-0.5,7.2-1,10.7-1.6
		c-119.6-16.4-202.3-129-214-250.9c-13.1-140.1,74.4-250.7,211.7-269.6C774.1,3495,758.8,3494.2,743.6,3494.7L743.6,3494.7z"/>
	<path id="path1614" inkscape:connector-curvature="0" sodipodi:nodetypes="ccccc" class="st24" d="M915.5,3942.3
		c-22.1,13.6-62.7,39.8-82.6,41.9c47.8,97.5,187.8,187.3,294.4,177.5c3.7-0.5,53.6-17.9,57.3-18.5
		C1092,4138.1,950.6,4067.5,915.5,3942.3L915.5,3942.3z"/>
	<path id="path1634" inkscape:connector-curvature="0" class="st36" d="M1873.5,3596.8c-11,1.6-22.8,3.5-35.5,5.6
		c74.8,23.9,165.3,182.9,75.9,284.8c-89.4,101.8-238.1,58-264.6,41.1c-172.7,107.3-293.2-8.8-293.2-8.8l-24.7,103.9
		c6.5-12.4,12-25.3,16.5-38.6c42.6,37.1,98.2,55.1,154.1,49.9c62.5-5.9,118.8-40.2,153.1-93.4c43.8,45.3,105.3,68.2,167.4,62.5
		c114.1-10.6,197.6-113.1,186.7-228.9l0,0C2001.4,3694.1,1948.7,3624.8,1873.5,3596.8L1873.5,3596.8z"/>
	
		<ellipse id="path1639" transform="matrix(0.2156 -0.9765 0.9765 0.2156 -2515.1631 3563.9133)" class="st24" cx="960.7" cy="3347.4" rx="71.2" ry="53.7"/>
	
		<ellipse id="ellipse1641" transform="matrix(0.972 -0.235 0.235 0.972 -873.3823 541.0502)" class="st36" cx="1833.5" cy="3935.1" rx="46.7" ry="31.3"/>
	<path id="path1645" inkscape:connector-curvature="0" class="st35" d="M3857.2,3111.6c187.1,17.4,324.1,185.5,306.2,375.4
		c0,0,0,0,0,0c-1.7,16.7-4.6,33.3-8.6,49.6c36.4-13.8,75.3-19.2,113.9-15.7c142.4,13.3,246.8,141.3,233.1,285.9
		c-13.7,144.6-140.2,251.1-282.6,237.8c-28.2-2.7-55.8-10.2-81.7-22c-42.9,108.1-150.6,175-264.8,164.4
		c-101.6-9.6-188-78.8-220.5-176.9c-42.6,37.1-98.2,55.1-154.1,49.9c-62.5-5.9-118.8-40.2-153.1-93.4
		c-43.8,45.3-105.3,68.2-167.4,62.5c-114.1-10.6-197.6-113.1-186.7-228.9c0,0,0,0,0,0c11-115.8,112.3-201,226.3-190.4c0,0,0,0,0,0
		c19.5,1.9,38.6,6.5,56.7,13.8c34.3-86.8,120.7-140.5,212.2-132.1c0,0,0,0,0.1,0c-2.3-22.5-2.3-45.2-0.2-67.7
		C3503.9,3234,3670.2,3094.2,3857.2,3111.6C3857.2,3111.6,3857.2,3111.6,3857.2,3111.6L3857.2,3111.6z"/>
	<path id="path1647" inkscape:connector-curvature="0" sodipodi:nodetypes="ccccccccc" class="st24" d="M3831.7,3084.8
		c8,0.2,16,0.6,24,1.4l0,0c187.1,17.4,324.1,185.5,306.2,375.4c-1.1,11.3,54.8,44.2,52.6,55.3c-17.6,3.8-84.2,37-145.8,35.2
		c61.1-324.1-163-439.6-306.2-459.1C3776.1,3091.5,3817.9,3084.6,3831.7,3084.8L3831.7,3084.8z"/>
	<path id="path1649" inkscape:connector-curvature="0" sodipodi:nodetypes="cccccccc" class="st24" d="M4254.9,3494.7
		c4.1,0.2,8.2,0.4,12.2,0.8c142.4,13.3,246.8,141.3,233.1,285.9c-13.7,144.6-140.2,251.1-282.6,237.8c-3.6-0.5-7.2-1-10.7-1.6
		c119.6-16.4,202.3-129,214-250.9c13.1-140.1-74.4-250.7-211.7-269.6C4224.4,3495,4239.6,3494.2,4254.9,3494.7z"/>
	<path id="path1651" inkscape:connector-curvature="0" sodipodi:nodetypes="ccccc" class="st24" d="M4083,3942.3
		c22.1,13.6,62.7,39.8,82.6,41.9c-47.8,97.5-187.8,187.3-294.4,177.5c-3.7-0.5-53.6-17.9-57.3-18.5
		C3906.5,4138.1,4047.9,4067.5,4083,3942.3L4083,3942.3z"/>
	<path id="path1653" inkscape:connector-curvature="0" sodipodi:nodetypes="cccccccccccc" class="st36" d="M3125,3596.8
		c11,1.6,22.8,3.5,35.5,5.6c-74.8,23.9-165.3,182.9-75.9,284.8c89.4,101.8,238.1,58,264.6,41.1c172.7,107.3,295.8,39,295.8,39
		l22.1,56.1c-6.5-12.4-12-25.3-16.5-38.6c-42.6,37.1-98.2,55.1-154.1,49.9c-62.5-5.9-118.8-40.2-153.1-93.4
		c-43.8,45.3-105.3,68.2-167.4,62.5c-114.1-10.6-197.6-113.1-186.7-228.9C2997.1,3694.1,3049.8,3624.8,3125,3596.8L3125,3596.8z"/>
	
		<ellipse id="ellipse1655" transform="matrix(0.9975 -7.083306e-02 7.083306e-02 0.9975 -230.821 297.1196)" class="st24" cx="4074" cy="3403.1" rx="49.4" ry="65.4"/>
	
		<ellipse id="ellipse1657" transform="matrix(0.2148 -0.9767 0.9767 0.2148 -1265.4625 5940.2129)" class="st36" cx="3061.5" cy="3757.1" rx="46.7" ry="31.3"/>
	
		<ellipse id="ellipse1659" transform="matrix(0.9769 -0.2135 0.2135 0.9769 -686.1493 1026.0378)" class="st24" cx="4407.4" cy="3689.8" rx="34.1" ry="53"/>
	<path id="path1661" inkscape:connector-curvature="0" class="st36" d="M3484.5,3456.9c0,11.6,0.6,23.1,1.7,34.7c0,0,0,0-0.1,0
		c-91.6-8.5-178,45.3-212.2,132.1c14.4-29,91.1-105.6,166.3-102.8c32.7,78.5,132,117.4,132,117.4s-27.4-39.8-51.9-75.2
		C3499.2,3532.6,3488.1,3483,3484.5,3456.9L3484.5,3456.9z"/>
	<path id="path1675" inkscape:connector-curvature="0" class="st14" d="M3848.5,2948.8c-64,3.7-132.4,21-195.3,50
		c24.8,32.9,48.2,66.9,70.1,101.9c42.8-13.6,87.8-18.6,132.4-14.5c29.4,2.9,58.2,9.6,85.9,20.1
		C3913.5,3052.1,3882.5,2999.5,3848.5,2948.8L3848.5,2948.8z"/>
	<path id="path1688" inkscape:connector-curvature="0" class="st17" d="M3654.3,2998.4c-59.1,27.1-113.4,64.5-154.6,110.7
		c23.5,31.2,45.5,63.5,66,96.7c41.9-49.4,96.7-85.9,158-105.2C3702,3065.5,3678.9,3031.4,3654.3,2998.4L3654.3,2998.4z"/>
	<path id="path1691" inkscape:connector-curvature="0" class="st10" d="M3500.2,3108.5c-56,62.5-87.9,141.1-75.3,232
		c22.5,40.6,42.3,82.6,59.3,125.7c0.1,0,0.3,0,0.4,0c0,0,0,0,0.1,0c-2.3-22.5-2.3-45.2-0.2-67.7c6.8-71,35.1-138.2,81-192.5
		C3545.3,3172.5,3523.5,3139.9,3500.2,3108.5L3500.2,3108.5z"/>
	<path id="path1694" inkscape:connector-curvature="0" class="st6" d="M3425.3,3342.9c0.3,2.2,0.7,4.4,1,6.6
		c-49.4-4.6-129.9,40.1-153.6,107c13.4,26.6,25.5,53.9,36.1,81.8c43.6-50.9,108.4-77.7,174.5-72.1
		C3466.6,3423.8,3447.2,3382.7,3425.3,3342.9L3425.3,3342.9z"/>
	<path id="path1698" inkscape:connector-curvature="0" class="st27" d="M3272.4,3457.2c-0.1,0.3-0.2,0.7-0.4,1
		c-60.3-3.4-153.4,15.3-175.2,70.5c-0.2-0.1-0.5-0.2-0.7-0.3c11.8,21.9,22.3,44.3,31.6,67.4c28.2-10.2,58.2-14,88-11.4
		c19.5,1.9,38.6,6.5,56.7,13.8c8.6-21.7,20.8-41.7,35.9-59.4C3297.7,3511,3285.8,3483.8,3272.4,3457.2L3272.4,3457.2z"/>
	<path id="path1701" inkscape:connector-curvature="0" class="st14" d="M1150,2948.8c64,3.7,132.4,21,195.3,50
		c-24.8,32.9-48.2,66.9-70.1,101.9c-42.8-13.6-87.8-18.6-132.4-14.5c-29.4,2.9-58.2,9.6-85.9,20.1
		C1085,3052.1,1116,2999.5,1150,2948.8z"/>
	<path id="path1703" inkscape:connector-curvature="0" class="st17" d="M1344.2,2998.4c59.1,27.1,113.4,64.5,154.6,110.7
		c-23.5,31.2-45.5,63.5-66,96.7c-41.9-49.4-96.7-85.9-158-105.2C1296.5,3065.5,1319.6,3031.4,1344.2,2998.4L1344.2,2998.4z"/>
	<path id="path1705" inkscape:connector-curvature="0" class="st10" d="M1498.2,3108.4c56,62.5,87.9,141.1,75.3,232
		c-22.5,40.6-42.3,82.6-59.3,125.7c-0.1,0-0.3,0-0.4,0c0,0,0,0-0.1,0c2.3-22.5,2.3-45.2,0.2-67.7c-6.8-71-35.1-138.2-81-192.5
		C1453.2,3172.5,1475,3139.9,1498.2,3108.4L1498.2,3108.4z"/>
	<path id="path1707" inkscape:connector-curvature="0" class="st6" d="M1573.2,3342.9c-0.3,2.2-0.7,4.4-1,6.6
		c49.4-4.6,129.9,40.1,153.6,107c-13.4,26.6-25.5,53.9-36.1,81.8c-43.6-50.9-108.4-77.7-174.5-72.1
		C1531.9,3423.8,1551.2,3382.6,1573.2,3342.9L1573.2,3342.9z"/>
	<path id="path1709" inkscape:connector-curvature="0" class="st27" d="M1726.1,3457.2c0.1,0.3,0.2,0.7,0.4,1
		c60.3-3.4,153.4,15.3,175.2,70.5c0.2-0.1,0.5-0.2,0.7-0.3c-11.8,21.9-22.3,44.3-31.6,67.4c-28.2-10.2-58.2-14-88-11.4
		c-19.5,1.9-38.6,6.5-56.7,13.8c-8.6-21.7-20.8-41.7-35.9-59.4C1700.8,3511,1712.7,3483.8,1726.1,3457.2L1726.1,3457.2z"/>
	<path id="path1714" inkscape:connector-curvature="0" class="st13" d="M2499.2,2221.6c-501.8,0.7-975.1,233.1-1282.2,629.7
		c321.7-356.5,789.6-562,1282.3-563.1c491.1,1.9,957.3,206.8,1278.3,561.9C3471.1,2455,2999.5,2223.1,2499.2,2221.6z M3655.5,3002.1
		c23.9,31.9,46.5,64.8,67.7,98.6c2.5-0.7,5.1-1.4,7.7-2C3707.2,3065.5,3682.1,3033.3,3655.5,3002.1z M1334.9,3012
		c-23.6,28-46.1,56.9-67.4,86.6c2.5,0.6,4.9,1.3,7.4,2C1293.8,3070.4,1313.8,3040.8,1334.9,3012z"/>
	<path id="path1717" inkscape:connector-curvature="0" class="st11" d="M2497.5,1034.3c-144.8,0-266.2,112.6-281.4,260.9
		c43.3-114.6,155.6-190.9,281.4-191c125.1,0.1,237,75.5,280.9,189.2C2762.5,1146,2641.5,1034.5,2497.5,1034.3z"/>
	<path id="path1722" inkscape:connector-curvature="0" class="st17" d="M2497.5,1618.8c-144.8,0-266.2-112.6-281.4-260.9
		c43.3,114.6,155.6,190.9,281.4,191c125.1-0.1,237-75.5,280.9-189.2C2762.5,1507.1,2641.5,1618.7,2497.5,1618.8L2497.5,1618.8z"/>
	
		<ellipse id="path1817" transform="matrix(0.9923 -0.1242 0.1242 0.9923 -119.8419 312.2846)" class="st11" cx="2444" cy="1117" rx="63.4" ry="32.2"/>
	
		<path id="path2713-9" inkscape:connector-curvature="0" inkscape:transform-center-x="4.3676448e-06" inkscape:transform-center-y="-3.0274907e-06" class="st15" d="
		M3572.5,909.5c-11.6,0-39.1-137.1-47.3-145.3c-8.2-8.2-145.3-35.7-145.3-47.3c0-11.6,137.1-39.1,145.3-47.3
		c8.2-8.2,35.7-145.3,47.3-145.3s39.1,137.1,47.3,145.3c8.2,8.2,145.3,35.7,145.3,47.3c0,11.6-137.1,39.1-145.3,47.3
		C3611.6,772.4,3584,909.5,3572.5,909.5z"/>
	
		<path id="path2715-0" inkscape:connector-curvature="0" inkscape:transform-center-x="4.3676448e-06" inkscape:transform-center-y="-3.0274907e-06" class="st15" d="
		M1060,1647c-11.6,0-39.1-137.1-47.3-145.3c-8.2-8.2-145.3-35.7-145.3-47.3c0-11.6,137.1-39.1,145.3-47.3
		c8.2-8.2,35.7-145.3,47.3-145.3s39.1,137.1,47.3,145.3c8.2,8.2,145.3,35.7,145.3,47.3c0,11.6-137.1,39.1-145.3,47.3
		C1099.1,1509.9,1071.5,1647,1060,1647z"/>
	
		<path id="path2717-9" inkscape:connector-curvature="0" inkscape:transform-center-x="4.3676448e-06" inkscape:transform-center-y="-3.0274907e-06" class="st15" d="
		M2403.3,4543.4c-11.6,0-39.1-137.1-47.3-145.3c-8.2-8.2-145.3-35.7-145.3-47.3c0-11.6,137.1-39.1,145.3-47.3
		c8.2-8.2,35.7-145.3,47.3-145.3s39.1,137.1,47.3,145.3c8.2,8.2,145.3,35.7,145.3,47.3c0,11.6-137.1,39.1-145.3,47.3
		C2442.5,4406.4,2414.9,4543.4,2403.3,4543.4z"/>
	
		<path id="path2723-2" inkscape:connector-curvature="0" inkscape:transform-center-x="4.3676448e-06" inkscape:transform-center-y="-3.0274907e-06" class="st15" d="
		M3960,2247c-11.6,0-39.1-137.1-47.3-145.3c-8.2-8.2-145.3-35.7-145.3-47.3c0-11.6,137.1-39.1,145.3-47.3
		c8.2-8.2,35.7-145.3,47.3-145.3c11.6,0,39.1,137.1,47.3,145.3c8.2,8.2,145.3,35.7,145.3,47.3c0,11.6-137.1,39.1-145.3,47.3
		C3999.1,2109.9,3971.5,2247,3960,2247z"/>
	<path id="path1364" inkscape:connector-curvature="0" class="st16" d="M1142.8,3086.2c-187.1,17.4-324.1,185.5-306.2,375.4
		c0,0,0,0,0,0c1.7,16.7,4.6,33.3,8.6,49.6c-36.4-13.8-75.3-19.2-113.9-15.7c-142.4,13.3-246.8,141.3-233.1,285.9
		c13.7,144.6,140.2,251.1,282.6,237.8c28.2-2.7,55.8-10.2,81.7-22c42.9,108.1,150.6,175,264.8,164.4c101.6-9.6,188-78.8,220.5-176.9
		c42.6,37.1,98.2,55.1,154.1,49.9c62.5-5.9,118.8-40.2,153.1-93.4c43.8,45.3,105.3,68.2,167.4,62.5
		c114.1-10.6,197.6-113.1,186.7-228.9v0c-11-115.8-112.3-201-226.3-190.4c0,0,0,0,0,0c-19.5,1.9-38.6,6.5-56.7,13.8
		c-34.3-86.8-120.7-140.5-212.2-132.1c0,0,0,0-0.1,0c2.3-22.5,2.3-45.2,0.2-67.7C1496.1,3208.6,1329.8,3068.8,1142.8,3086.2
		C1142.8,3086.2,1142.8,3086.2,1142.8,3086.2L1142.8,3086.2z"/>
	<path id="path1426" inkscape:connector-curvature="0" class="st16" d="M2499.2,2221.6c-610.2,0.4-1168.7,342.6-1445.8,886
		c28.7-11.2,58.7-18.4,89.3-21.3l0,0c44.5-4,89.4,0.8,132,14.4c259.8-427.6,723.8-689,1224.4-689.7
		c500.5,0.8,964.4,262.2,1224,689.8c42.8-13.6,87.8-18.6,132.4-14.5h0c29.4,2.9,58.2,9.6,85.9,20.1
		C3664.7,2564.6,3107.9,2223.1,2499.2,2221.6L2499.2,2221.6z"/>
	<path id="path1422" inkscape:connector-curvature="0" class="st16" d="M2499.2,2410.9c-500.5,0.8-964.4,262.2-1224,689.8
		c61.3,19.4,116,55.9,157.8,105.3c224.3-375,629-604.9,1066.2-605.8c437.2,0.7,842,230.6,1066.4,605.6
		c41.9-49.4,96.7-85.9,158-105.2C3463.9,2673,2999.8,2411.6,2499.2,2410.9z"/>
	<path id="path1379" inkscape:connector-curvature="0" class="st16" d="M2499.2,2600.2c-437.2,0.7-842,230.6-1066.4,605.6
		c46,54.2,74.4,121.6,81.2,192.7c2.1,22.5,2,45.2-0.2,67.7c0,0,0,0,0.1,0c0.5,0,0.9,0,1.4-0.1c156.5-407.1,547.6-676,984-676.6
		c436.8,0.2,828.3,269.2,985,676.6c0.1,0,0.3,0,0.4,0c0,0,0,0,0.1,0c-2.3-22.5-2.3-45.2-0.2-67.7c6.8-71,35.1-138.3,81-192.5
		C3341.1,2831.1,2936.4,2601.1,2499.2,2600.2L2499.2,2600.2z"/>
	<path id="path1416" inkscape:connector-curvature="0" class="st16" d="M2499.2,2789.6c-436.8,0.2-828.3,269.2-985,676.6
		c66.7-6,132.2,21.1,176,72.7c127.1-336.5,449.1-559.4,809-560c359.9,0.3,682.2,222.9,809.6,559.4c43.6-50.9,108.4-77.7,174.5-72.1
		C3326.7,3059,2935.7,2790.1,2499.2,2789.6z"/>
	<path id="path1418" inkscape:connector-curvature="0" class="st16" d="M2499.2,2978.9c-359.9,0.3-682.2,222.9-809.6,559.4
		c15.4,17.8,27.7,38.1,36.4,60c18.2-7.3,37.3-11.9,56.7-13.8c29.7-2.7,59.6,1.2,87.7,11.3c102.1-257.8,351.2-427.3,628.7-427.6
		c277.4,0.4,526.4,169.9,628.5,427.7c28.2-10.2,58.2-14,88-11.4c19.5,1.9,38.6,6.5,56.7,13.8c8.6-21.7,20.8-41.7,35.9-59.4
		C3181.2,3202.4,2859.1,2979.4,2499.2,2978.9L2499.2,2978.9z"/>
	<path id="path1377" inkscape:connector-curvature="0" class="st16" d="M3855.7,3086.2c187.1,17.4,324.1,185.5,306.2,375.4
		c0,0,0,0,0,0c-1.7,16.7-4.6,33.3-8.6,49.6c36.4-13.8,75.3-19.2,113.9-15.7c142.4,13.3,246.8,141.3,233.1,285.9
		c-13.7,144.6-140.2,251.1-282.6,237.8c-28.2-2.7-55.8-10.2-81.7-22c-42.9,108.1-150.6,175-264.8,164.4
		c-101.6-9.6-188-78.8-220.5-176.9c-42.6,37.1-98.2,55.1-154.1,49.9c-62.5-5.9-118.8-40.2-153.1-93.4
		c-43.8,45.3-105.3,68.2-167.4,62.5c-114.1-10.6-197.6-113.1-186.7-228.9c0,0,0,0,0,0c11-115.8,112.3-201,226.3-190.4c0,0,0,0,0,0
		c19.5,1.9,38.6,6.5,56.7,13.8c34.3-86.8,120.7-140.5,212.2-132.1c0,0,0,0,0.1,0c-2.3-22.5-2.3-45.2-0.2-67.7
		C3502.4,3208.6,3668.6,3068.8,3855.7,3086.2C3855.7,3086.2,3855.7,3086.2,3855.7,3086.2L3855.7,3086.2z"/>
	<path id="path1499" inkscape:connector-curvature="0" class="st16" d="M3495.3,3339.4c0,0-47.6,168.4,68.1,278.9"/>
	<path id="path1501" inkscape:connector-curvature="0" class="st16" d="M1307.8,4060.9c0,0,81-81.7,46.3-232"/>
	<path id="path1503" inkscape:connector-curvature="0" class="st16" d="M2788.8,1327.5c0,160.9-130.4,291.3-291.3,291.3c0,0,0,0,0,0
		c-160.9,0-291.3-130.4-291.3-291.3v0c0-160.9,130.4-291.3,291.3-291.3S2788.8,1166.6,2788.8,1327.5z"/>
	
		<path id="path1510" inkscape:connector-curvature="0" inkscape:transform-center-x="6.5614085e-06" inkscape:transform-center-y="-0.00011592879" class="st16" d="
		M2997.6,1614c-6.9,12-169.6,22.3-179.3,32.1c-9.7,9.8-19,172.6-30.9,179.5c-11.9,6.9-158-65.4-171.4-61.8
		c-13.3,3.6-102.7,140-116.5,140c-13.8,0-104.1-135.7-117.5-139.2c-13.4-3.5-159,69.8-170.9,63s-22.3-169.6-32.1-179.3
		c-9.8-9.7-172.6-19-179.5-30.9c-6.9-11.9,65.4-158,61.8-171.3s-140-102.7-140-116.5c0-13.8,135.7-104.1,139.2-117.5
		c3.5-13.4-69.9-158.9-63-170.9c6.9-12,169.6-22.3,179.3-32.1s19-172.6,30.9-179.5c11.9-6.9,158,65.4,171.4,61.8
		s102.7-140,116.5-140c13.8,0,104.1,135.7,117.5,139.2s159-69.8,170.9-63c12,6.9,22.3,169.6,32.1,179.3c9.8,9.7,172.6,19,179.5,30.9
		s-65.4,158-61.8,171.3c3.6,13.3,140,102.7,140,116.5c0,13.8-135.7,104.1-139.2,117.5C2931.1,1456.4,3004.5,1602,2997.6,1614z"/>
	
		<path id="path2713" inkscape:connector-curvature="0" inkscape:transform-center-x="4.3676448e-06" inkscape:transform-center-y="-3.0274907e-06" class="st16" d="
		M3572.5,909.5c-11.6,0-39.1-137.1-47.3-145.3c-8.2-8.2-145.3-35.7-145.3-47.3c0-11.6,137.1-39.1,145.3-47.3
		c8.2-8.2,35.7-145.3,47.3-145.3s39.1,137.1,47.3,145.3c8.2,8.2,145.3,35.7,145.3,47.3c0,11.6-137.1,39.1-145.3,47.3
		C3611.6,772.4,3584,909.5,3572.5,909.5z"/>
	
		<path id="path2715" inkscape:connector-curvature="0" inkscape:transform-center-x="4.3676448e-06" inkscape:transform-center-y="-3.0274907e-06" class="st16" d="
		M1060,1647c-11.6,0-39.1-137.1-47.3-145.3c-8.2-8.2-145.3-35.7-145.3-47.3c0-11.6,137.1-39.1,145.3-47.3
		c8.2-8.2,35.7-145.3,47.3-145.3s39.1,137.1,47.3,145.3c8.2,8.2,145.3,35.7,145.3,47.3c0,11.6-137.1,39.1-145.3,47.3
		C1099.1,1509.9,1071.5,1647,1060,1647z"/>
	
		<path id="path2717" inkscape:connector-curvature="0" inkscape:transform-center-x="4.3676448e-06" inkscape:transform-center-y="-3.0274907e-06" class="st16" d="
		M2403.3,4543.4c-11.6,0-39.1-137.1-47.3-145.3c-8.2-8.2-145.3-35.7-145.3-47.3c0-11.6,137.1-39.1,145.3-47.3
		c8.2-8.2,35.7-145.3,47.3-145.3s39.1,137.1,47.3,145.3c8.2,8.2,145.3,35.7,145.3,47.3c0,11.6-137.1,39.1-145.3,47.3
		C2442.5,4406.4,2414.9,4543.4,2403.3,4543.4z"/>
	
		<path id="path2723" inkscape:connector-curvature="0" inkscape:transform-center-x="4.3676448e-06" inkscape:transform-center-y="-3.0274907e-06" class="st16" d="
		M3960,2247c-11.6,0-39.1-137.1-47.3-145.3c-8.2-8.2-145.3-35.7-145.3-47.3c0-11.6,137.1-39.1,145.3-47.3
		c8.2-8.2,35.7-145.3,47.3-145.3c11.6,0,39.1,137.1,47.3,145.3c8.2,8.2,145.3,35.7,145.3,47.3c0,11.6-137.1,39.1-145.3,47.3
		C3999.1,2109.9,3971.5,2247,3960,2247z"/>
	<circle id="circle2845" cx="3765.6" cy="1796.8" r="45.4"/>
	<circle id="circle2847" cx="3596.6" cy="2264.2" r="28.8"/>
	<circle id="circle2849" cx="3272.8" cy="499.7" r="43.2"/>
	<circle id="circle2851" cx="3385.5" cy="1125.1" r="27.7"/>
	<circle id="circle2853" cx="1503.1" cy="1309.3" r="45.4"/>
	<circle id="circle2855" cx="1334.1" cy="1776.7" r="28.8"/>
	<circle id="circle2857" cx="2713" cy="4006.3" r="45.4"/>
	<circle id="circle2859" cx="2103.1" cy="4189.7" r="29.9"/>
</g>
</svg>
