<?xml version="1.0" encoding="utf-8"?>
<!-- Generator: Adobe Illustrator 23.0.0, SVG Export Plug-In . SVG Version: 6.00 Build 0)  -->
<svg version="1.1"
	 id="svg8" xmlns:cc="http://creativecommons.org/ns#" xmlns:dc="http://purl.org/dc/elements/1.1/" xmlns:inkscape="http://www.inkscape.org/namespaces/inkscape" xmlns:rdf="http://www.w3.org/1999/02/22-rdf-syntax-ns#" xmlns:sodipodi="http://sodipodi.sourceforge.net/DTD/sodipodi-0.dtd" xmlns:svg="http://www.w3.org/2000/svg"
	 xmlns="http://www.w3.org/2000/svg" xmlns:xlink="http://www.w3.org/1999/xlink" x="0px" y="0px" viewBox="0 0 5000 5000"
	 style="enable-background:new 0 0 5000 5000;" xml:space="preserve">
<style type="text/css">
	.st0{fill:#80B3FF;}
	.st1{fill:#FF9955;}
	.st2{fill:#FF5555;}
	.st3{fill:#87DE87;}
	.st4{fill:#FFE680;}
	.st5{fill:#AACCFF;}
	.st6{fill:#5599FF;}
	.st7{fill:#FFB380;}
	.st8{fill:#D38D5F;}
	.st9{fill:#AFE9AF;}
	.st10{fill:#6F916F;}
	.st11{fill:#FFF6D5;}
	.st12{fill:#DECD87;}
	.st13{fill:#FF8080;}
	.st14{fill:#C83737;}
	.st15{fill:#FFDD55;}
	.st16{fill:none;stroke:#000000;stroke-width:50;stroke-linecap:round;stroke-linejoin:round;}
	.st17{fill:#D3BC5F;}
	.st18{fill-opacity:0;}
	.st19{fill:#DEAA87;}
	.st20{fill:#C87137;}
	.st21{fill:#FFEEAA;}
	.st22{fill:#D7E3F4;}
	.st23{fill:#A05A2C;}
	.st24{fill:#FFFFFF;}
	.st25{fill:#AA87DE;}
	.st26{fill:#C6AFE9;}
	.st27{fill:#7C6F91;}
	.st28{fill:#FFCCAA;}
	.st29{fill:#FFE6D5;}
	.st30{fill:#D35F5F;}
	.st31{fill:#F4D7D7;}
	.st32{fill:#ECECEC;}
	.st33{fill:none;stroke:#000000;stroke-width:50;}
	.st34{fill-opacity:0;stroke:#000000;stroke-width:50;stroke-linecap:round;stroke-linejoin:round;}
	.st35{fill:#D5E5FF;}
	.st36{fill:#93A7AC;}
	.st37{fill:#6F917C;}
	.st38{fill:#536C53;}
	.st39{fill:#FF00FF;}
	.st40{fill:#BCD35F;}
	.st41{fill:#E9C6AF;}
	.st42{fill:#DDE9AF;}
</style>
<g>
	<path id="path1835" inkscape:connector-curvature="0" class="st39" d="M1643,1125.9c-99.9,0-180.4,78.3-180.4,175.5v520.3
		c14,2.8,101.1,148.3,115.3,148.3c14.2,0,101.4-145.6,115.3-148.3c14-2.8,150.2,98.4,163.3,92.9c13.2-5.5,37.9-173.3,49.8-181.2
		c11.8-7.9,176.4,33.4,186.4,23.3c10.1-10.1-31.3-174.6-23.3-186.4c7.9-11.8,175.7-36.6,181.2-49.8c5.5-13.2-95.7-149.3-92.9-163.3
		c2.8-14,148.3-101.1,148.3-115.3c0-14.2-145.6-101.4-148.3-115.3c0-0.2-0.1-0.4-0.1-0.6L1643,1125.9z"/>
	<path id="rect1597-3" inkscape:connector-curvature="0" class="st0" d="M1680.9,1125.9c-120.9,0-218.3,94.7-218.3,212.4v2110.5
		c42.2,66.2,83.7,138.9,122.1,214c36.3,71.2,69.2,143.3,97.1,212.9h1303.5c-75.9-88.6-104.2-218.7-87-391.2
		c25.3-253.5,285.7-489.7,609.2-493.4V1338.3c0-117.7-97.4-212.4-218.3-212.4L1680.9,1125.9z"/>
	<path id="path1823" inkscape:connector-curvature="0" class="st35" d="M1675.1,1118.1c-120.9,0-218.3,94.7-218.3,212.4v2110.5
		c42.2,66.2,83.7,138.9,122.1,214c36.3,71.2,69.2,143.3,97.1,212.9h56.9c-17.1-37.8-35.4-75.8-54.6-113.5
		c-38.4-75.1-79.8-147.8-122.1-214V1429.8c0-117.7,97.4-212.4,218.3-212.4h1608.3c35.4,0,68.8,8.1,98.3,22.6
		c-34.8-72.2-110-122-197.7-122L1675.1,1118.1z"/>
	<path id="path1665-1" inkscape:connector-curvature="0" class="st1" d="M1680.9,1125.9c-120.9,0-218.3,94.7-218.3,212.4v629.7
		c16.9,3.4,122.3,179.5,139.6,179.5c17.2,0,122.7-176.2,139.6-179.5c16.9-3.4,181.7,119.1,197.7,112.5
		c15.9-6.6,45.9-209.7,60.2-219.3c14.3-9.6,213.5,40.4,225.6,28.3c12.2-12.2-37.8-211.3-28.3-225.6c9.6-14.3,212.7-44.3,219.3-60.2
		c6.6-15.9-115.8-180.7-112.5-197.7c3.4-16.9,179.5-122.3,179.5-139.6c0-17.2-176.2-122.7-179.5-139.6c0-0.2-0.1-0.5-0.1-0.8
		L1680.9,1125.9z"/>
	<path id="path1600-4" inkscape:connector-curvature="0" sodipodi:nodetypes="zzzczccccc" class="st28" d="M3908.2,3107.7
		c-482.9-296.2-974.6,23.4-1009.9,376.7c-35.3,353.3,120.3,528.7,485,534.1c364.7,5.4,198.3,325.7,484.6,305.9
		C4139,4305.7,4391.2,3403.9,3908.2,3107.7L3908.2,3107.7z M3892,4012.9c40.9,23,55.3,74.9,32.3,115.7
		c-23,40.9-74.9,55.3-115.7,32.3c-40.9-23-55.3-74.9-32.3-115.7C3799.3,4004.3,3851.1,3989.9,3892,4012.9L3892,4012.9z"/>
	
		<ellipse id="ellipse1851" transform="matrix(0.9193 -0.3935 0.3935 0.9193 -1043.0938 1571.6345)" class="st8" cx="3311.8" cy="3330" rx="130.3" ry="111.8"/>
	
		<ellipse id="circle1605-8" transform="matrix(0.8901 -0.4558 0.4558 0.8901 -1138.5234 1864.7142)" class="st0" cx="3296.8" cy="3292.8" rx="119.8" ry="104.5"/>
	
		<ellipse id="ellipse1845" transform="matrix(0.4732 -0.881 0.881 0.4732 -970.3451 5018.5767)" class="st8" cx="3710.9" cy="3320.6" rx="116.4" ry="133.2"/>
	
		<ellipse id="ellipse1609-5" transform="matrix(0.4732 -0.881 0.881 0.4732 -929.6832 4996.6069)" class="st1" cx="3712.8" cy="3275.6" rx="108" ry="123.6"/>
	
		<ellipse id="ellipse1843" transform="matrix(0.9926 -0.1211 0.1211 0.9926 -413.6006 500.3715)" class="st8" cx="3908.2" cy="3651.6" rx="115.8" ry="132.8"/>
	
		<ellipse id="ellipse1613-6" transform="matrix(0.9926 -0.1211 0.1211 0.9926 -409.0855 502.8071)" class="st4" cx="3930.5" cy="3615.7" rx="104.5" ry="119.8"/>
	
		<ellipse id="ellipse1853" transform="matrix(0.7679 -0.6405 0.6405 0.7679 -1651.2001 2897.0339)" class="st8" cx="3172.5" cy="3727.3" rx="114.6" ry="128.6"/>
	
		<ellipse id="ellipse1615-6" transform="matrix(0.8826 -0.47 0.47 0.8826 -1361.7933 1917.9623)" class="st40" cx="3160.2" cy="3686.2" rx="104.5" ry="119.8"/>
	<path id="path1621-7" inkscape:connector-curvature="0" class="st8" d="M1119.5,3285.5c16.6,128.4,86.7,323.3,186.7,519.4
		c165.2,323.8,361.5,554.5,438.4,515.3c76.9-39.2,5.3-333.6-159.9-657.4l0,0c-100-196-216.7-367.1-310.9-456L1119.5,3285.5z"/>
	<path id="path1731" inkscape:connector-curvature="0" class="st23" d="M1161.2,3264.2l-41.7,21.3
		c16.6,128.4,86.7,323.3,186.7,519.4c165.2,323.8,361.5,554.5,438.4,515.3c14.7-7.7,24.3-25.3,28.3-52.2
		c-96.1-18.6-273.8-236.1-423.4-517.9C1254.8,3571.1,1185.4,3392.2,1161.2,3264.2L1161.2,3264.2z"/>
	<path id="rect1623-5" inkscape:connector-curvature="0" class="st4" d="M1010.3,3131.4l202.9-103.5c45.2-23,100.5-4.5,124,41.6
		c23.5,46.1,6.1,101.8-39.1,124.8l-202.9,103.5c-45.2,23-100.5,4.5-124-41.6C947.7,3210.2,965.1,3154.5,1010.3,3131.4L1010.3,3131.4
		z"/>
	<path id="path1629-7" inkscape:connector-curvature="0" class="st1" d="M839.4,2546c0,0,77.9,49.9,31,289.4
		c-46.8,239.5,164.2,283.6,164.2,283.6l164-83.7C1299.5,2796,839.4,2546,839.4,2546z"/>
	<path id="path1640-0" inkscape:connector-curvature="0" sodipodi:nodetypes="ccccccccc" class="st40" d="M2049.2,2728.9
		l-586.5,602.4v117.4c42.2,66.2,83.7,138.9,122.1,214c35.7,70,68.1,140.9,95.7,209.4l37.8,3.5h1267.1
		c-51.8-60.4-81.4-140.2-89.6-239.5L2049.2,2728.9z"/>
	
		<path id="path1642-1" inkscape:connector-curvature="0" sodipodi:nodetypes="cccccccccccccccccccccccccccccccccccccccccccccccccccccccccccccccccccc" class="st40" d="
		M2972.1,2339.1l-645.8,686.7l569.5,610.3c-3.8-46.3-2.9-96.9,2.5-151.7c25.3-253.5,285.7-489.7,609.2-493.4V2845L2972.1,2339.1z
		 M2902.6,3689.7c0,0.2,0.1,0.3,0.1,0.5C2902.7,3690,2902.6,3689.8,2902.6,3689.7z M2907.7,3714.9c0,0.2,0.1,0.4,0.1,0.6
		C2907.8,3715.3,2907.8,3715.1,2907.7,3714.9z M2911.8,3731.5c0,0.1,0.1,0.3,0.1,0.4C2911.9,3731.7,2911.8,3731.6,2911.8,3731.5z
		 M2918.7,3754.8c0.1,0.4,0.2,0.7,0.4,1.1C2919,3755.5,2918.8,3755.1,2918.7,3754.8z M2921.4,3762.6c0,0.1,0.1,0.3,0.1,0.4
		C2921.5,3762.9,2921.4,3762.7,2921.4,3762.6z M2924.2,3770.3c0.1,0.2,0.1,0.4,0.2,0.6C2924.3,3770.7,2924.2,3770.5,2924.2,3770.3z
		 M2926.8,3777.3c0.1,0.4,0.3,0.8,0.4,1.1C2927.1,3778,2927,3777.6,2926.8,3777.3z M2933,3792.1c0.1,0.3,0.3,0.6,0.4,0.9
		C2933.3,3792.7,2933.2,3792.4,2933,3792.1z M2936.1,3798.8c0.2,0.4,0.3,0.7,0.5,1.1C2936.5,3799.5,2936.3,3799.2,2936.1,3798.8z
		 M2943,3812.8c0.2,0.4,0.5,0.9,0.7,1.3C2943.5,3813.6,2943.2,3813.2,2943,3812.8z M1656.4,3815.1c8,18.3,15.7,36.5,23,54.5
		C1672,3851.6,1664.3,3833.4,1656.4,3815.1z M2946.4,3819.2c0.2,0.5,0.5,0.9,0.7,1.4C2946.9,3820.1,2946.7,3819.6,2946.4,3819.2z
		 M2954.2,3832.6c0.3,0.5,0.6,0.9,0.8,1.3C2954.7,3833.5,2954.5,3833,2954.2,3832.6z M2958.1,3838.8c0.2,0.3,0.4,0.7,0.6,1
		C2958.5,3839.5,2958.3,3839.2,2958.1,3838.8z M2962.5,3845.6c0.3,0.4,0.5,0.8,0.8,1.2C2963,3846.3,2962.8,3846,2962.5,3845.6z
		 M2966.4,3851.2c0.4,0.5,0.8,1.1,1.1,1.6C2967.1,3852.3,2966.8,3851.7,2966.4,3851.2z M2971,3857.6c0.2,0.2,0.3,0.4,0.5,0.7
		C2971.3,3858,2971.2,3857.8,2971,3857.6z M2975.5,3863.6c0.4,0.5,0.7,1,1.1,1.4C2976.3,3864.5,2975.9,3864.1,2975.5,3863.6z
		 M2979.9,3869c0.4,0.5,0.8,1,1.2,1.4C2980.7,3870,2980.3,3869.5,2979.9,3869z M1680.4,3872.1l1.4,3.5h36.4L1680.4,3872.1z"/>
	<path id="path1656-7" inkscape:connector-curvature="0" class="st35" d="M3192.3,1525.5c-108.2-2.3-200.1,80.6-210.4,189.8
		c-1.3,13.6-1.2,27.4,0.1,41c0,0,0,0,0,0c-55.5-5.1-107.9,27.4-128.6,79.9c-11-4.4-22.6-7.2-34.4-8.3
		c-69.1-6.4-130.6,45.1-137.2,115.2c0,0,0,0,0,0c-6.6,70.1,44,132.1,113.1,138.5c0,0,0,0,0,0c37.7,3.5,74.9-10.4,101.5-37.8
		c20.8,32.1,55,52.9,92.8,56.5c33.8,3.1,67.5-7.8,93.4-30.2c19.7,59.3,72.1,101.3,133.7,107c69.2,6.4,134.5-34.1,160.5-99.5
		c15.7,7.2,32.4,11.7,49.5,13.3c27.9,2.5,56-2.6,81.4-14.7v-288c-16.2-7.6-33.5-12.4-51.3-14.2c-23.4-2.1-47,1.1-69.1,9.5
		c2.5-9.9,4.2-19.9,5.2-30c10.9-114.9-72.2-216.6-185.6-227.1c0,0,0,0,0,0l0,0C3202,1525.9,3197.1,1525.6,3192.3,1525.5
		L3192.3,1525.5z"/>
	<path id="path1833" inkscape:connector-curvature="0" class="st20" d="M1626.3,1125.9c-90.7,0-163.7,71-163.7,159.3v472.2
		c12.7,2.5,91.7,134.7,104.7,134.7c12.9,0,92-132.1,104.7-134.7c12.7-2.5,136.3,89.3,148.2,84.3c11.9-4.9,34.4-157.3,45.2-164.5
		c10.8-7.2,160.1,30.3,169.2,21.2c9.1-9.1-28.4-158.5-21.2-169.2c7.2-10.8,159.5-33.2,164.5-45.2c4.9-11.9-86.9-135.6-84.3-148.2
		c2.5-12.7,134.7-91.7,134.7-104.7c0-12.9-132.1-92-134.7-104.7c0-0.2-0.1-0.4-0.1-0.6L1626.3,1125.9z"/>
	<path id="path1658-0" inkscape:connector-curvature="0" class="st4" d="M1680.9,1125.9c-120.9,0-218.3,94.7-218.3,212.4v396.9
		c45.3,13.6,92.3,20.5,139.6,20.6c270.3,0,489.5-219.1,489.5-489.5c-0.1-47.6-7.2-94.8-21-140.3H1680.9z"/>
	<path id="path1033-2" inkscape:connector-curvature="0" class="st41" d="M1444.9,4046.3c44.9-72.5,52.2-168.9,19.6-257
		c-42.9-115.6-145.6-193.8-253.6-193c28,69.7,60.9,142.1,97.3,213.4C1351,3893.6,1397.7,3974.3,1444.9,4046.3L1444.9,4046.3z"/>
	<path id="path1738" inkscape:connector-curvature="0" class="st19" d="M1209,3591.4c3.1,7.7,6.3,15.4,9.5,23.2
		c4,9.7,8,19.5,12.2,29.3c4.2,9.6,8.5,19.3,12.8,29c4.3,9.9,8.7,19.7,13.2,29.7c4.5,9.8,9.1,19.5,13.8,29.3
		c4.7,10.1,9.6,20.2,14.4,30.4c6.9,14.2,14,28.4,21.2,42.5c42.9,83.9,89.5,164.6,136.7,236.6c14.7-23.9,25.5-50.8,32.1-79.5
		c-43.4-65.7-86-137.6-125.4-211.9c-26.1-49.4-50.5-99.3-72.7-148.5C1254.5,3594.7,1231.6,3591.3,1209,3591.4L1209,3591.4z"/>
	<path id="path1744" inkscape:connector-curvature="0" class="st19" d="M1273.8,3206.7l-65.2,33.2
		c102.8,96.4,225.3,262.7,332.2,450.6c136.4,240.2,224.7,476,225.8,602.6c35.7-89.5-40.2-352.7-181.9-630.5
		C1484.7,3466.7,1368,3295.6,1273.8,3206.7z"/>
	<path id="path1749" inkscape:connector-curvature="0" class="st17" d="M997.9,3139.1c-35.8,26.2-47.9,75.6-26.7,117.2
		c23.5,46.1,78.8,64.7,124,41.6l202.9-103.5c19.3-9.9,33.6-25.7,41.7-44.2l-195.4,99.7c-49.7,25.4-110.6,4.9-136.5-45.8
		C997.2,3183.1,994.2,3160.3,997.9,3139.1z"/>
	<path id="path1754" inkscape:connector-curvature="0" class="st24" d="M1255,3018c-14.1-0.1-28.4,3.1-41.8,9.9l-202.9,103.5
		c-16.1,8.2-28.6,20.5-37.1,35.1l199-101.5c46.9-23.9,104.2-4.7,128.6,43.2c13.8,27.1,14,57.5,3,83c40.9-24.7,55.9-77.5,33.4-121.6
		C1320.7,3037.1,1288.4,3018.3,1255,3018z"/>
	<path id="path1764" inkscape:connector-curvature="0" class="st20" d="M839.4,2546c0,0,77.9,49.9,31,289.4
		c-46.8,239.5,164.2,283.6,164.2,283.6l53.7-27.4c-71.5-19.2-200.9-82.4-192.8-287.7c4.6-116.4-9.3-192.2-27.3-241.1
		C850.3,2551.9,839.4,2546,839.4,2546z"/>
	<path id="path1771" inkscape:connector-curvature="0" class="st7" d="M839.4,2557.7c0,0,26.6,17.1,39.3,79.1
		c97.9,65,323.1,233.2,322.8,403C1290.2,2802.7,839.4,2557.7,839.4,2557.7z"/>
	
		<ellipse id="path1777" transform="matrix(0.675 -0.7379 0.7379 0.675 -1726.7601 1703.1334)" class="st7" cx="1069.7" cy="2811.5" rx="28.6" ry="50.8"/>
	
		<ellipse id="ellipse1779" transform="matrix(0.7989 -0.6015 0.6015 0.7989 -2140.5161 1765.1237)" class="st23" cx="1569.4" cy="4083.6" rx="32.3" ry="57.3"/>
	<path id="path1790" inkscape:connector-curvature="0" class="st24" d="M3513.7,2983.2c-329.1-2.2-595.7,236.7-621.3,493.4
		c-20,200,21.3,343,126.9,430.4c-55.4-86.5-74.9-204.6-59.9-354.8c35.3-353.3,526.9-672.8,1009.9-376.7c30.1,18.4,57.3,39.3,81.9,62
		c-38.9-53.5-88.1-100.4-148.9-137.7C3770.3,3018.9,3637.6,2984,3513.7,2983.2L3513.7,2983.2z"/>
	<path id="path1792" inkscape:connector-curvature="0" class="st8" d="M4178.7,3742.7c-2.9,0.2-4.6,0.5-4.6,0.5
		s-93.2,382.1-233.8,472.2c-140.6,90.2-199.3-15.6-273.9-125.9c-74.6-110.2-304.7-87.5-304.7-87.5s0.7,8,1.4,16
		c6.7,0.2,13.5,0.4,20.3,0.5c364.7,5.4,198.3,325.6,484.6,305.9C4016.6,4314.1,4159.5,4038.5,4178.7,3742.7L4178.7,3742.7z"/>
	<path id="ellipse1797" inkscape:connector-curvature="0" class="st22" d="M3305.4,3185.1c-19.5,0.7-39.1,5.9-56.9,15.1
		c-58.7,30.5-84.7,96.7-58.1,147.8c4.1,7.9,9.4,15.1,15.6,21.5c-6.1-45.8,21.2-93.3,67.6-117.4c48.4-25.1,105.5-18.5,139,16
		c-1.4-10.7-4.6-21-9.6-30.4C3385.5,3203.8,3348,3183.6,3305.4,3185.1L3305.4,3185.1z"/>
	<path id="ellipse1802" inkscape:connector-curvature="0" class="st7" d="M3696.5,3163.9c-40.6,0.9-75.5,21.1-92.8,53.6
		c-2,4-3.8,8.1-5.3,12.3c35.8-25.2,86.7-26.7,129.9-3.8c55,29.3,82.3,89.9,63.7,141.2c12.6-8.9,22.8-20.3,29.9-33.6
		c28-52.7,1.8-121.4-58.4-153.5c0,0,0,0,0,0C3742.6,3169.1,3719.4,3163.4,3696.5,3163.9L3696.5,3163.9z"/>
	<path id="ellipse1807" inkscape:connector-curvature="0" class="st42" d="M3155.2,3577c-17-0.8-33.5,2.8-48.1,10.5
		c-51.1,26.8-67.6,95.9-36.8,154.5l0,0c19,36.1,52.7,61.3,89.5,66.9c-18.7-12-34.3-29.3-45.1-49.6c-30.8-58.6-14.3-127.7,36.8-154.5
		c17.7-9.3,38.1-12.5,58.8-9.4C3193.3,3584.3,3174.2,3577.9,3155.2,3577L3155.2,3577z"/>
	<path id="ellipse1812" inkscape:connector-curvature="0" class="st11" d="M3924,3496.1c-2.5,0.1-4.9,0.3-7.4,0.5
		c-38.5,4.5-71,33-84.4,74.1c15.7-15.6,35.3-25.2,56.3-27.6c57.3-6.6,110,41.3,117.7,107c2.2,19.3,0.3,38.9-5.6,56.9
		c25.7-25.4,38.2-64.1,33.7-103.3C4027,3541.3,3978.8,3494.3,3924,3496.1L3924,3496.1z"/>
	<path id="path1819" inkscape:connector-curvature="0" class="st42" d="M2384.5,3075.4l642.1-681.3l-64.8-58.4L2324.2,3023
		L2384.5,3075.4z"/>
	<path id="path1821" inkscape:connector-curvature="0" class="st42" d="M1461.9,3414.2l641.9-615.9l-56.2-71.3l-594.3,603
		L1461.9,3414.2z"/>
	<path id="path1828" inkscape:connector-curvature="0" sodipodi:nodetypes="sscsccccs" class="st11" d="M1680.9,1133.4
		c-120.9,0-218.3,110-218.3,227.7v67c0-117.7,97.4-212.4,218.3-212.4h389.8c10.7,36,17.2,57.9,19.4,95.5c1-12.4,1.5-24.9,1.6-37.4
		c-0.1-47.6-7.2-94.8-21-140.3H1680.9z"/>
	
		<ellipse id="path1837" transform="matrix(0.4188 -0.9081 0.9081 0.4188 -1204.568 6019.2275)" class="st8" cx="4100.2" cy="3950.7" rx="79.4" ry="50.5"/>
	<path id="path1855" inkscape:connector-curvature="0" class="st24" d="M3192.3,1525.5c-108.2-2.3-200.1,80.6-210.4,189.8
		c-1.3,13.6-1.2,27.4,0.1,41c0,0,0,0,0,0c-55.5-5.1-107.9,27.4-128.6,79.9c-11-4.4-22.6-7.2-34.4-8.3
		c-69.1-6.4-130.6,45.1-137.2,115.2c0,0,0,0,0,0c-4.4,46.9,17.1,92.4,56,118.2c-16.2-24.4-23.6-53.7-20.8-83
		c6.6-70.1,68.1-121.6,137.2-115.2c0,0,0,0,0,0c11.8,1.1,23.4,3.9,34.4,8.3c20.8-52.5,73.1-85,128.6-79.9c0,0,0,0,0,0
		c-1.4-13.6-1.4-27.3-0.1-41c10.3-109.2,102.2-192,210.4-189.8l0,0c4.9,0.1,9.7,0.4,14.6,0.8c38.7,3.6,75.6,18.3,106.3,42.2
		c-34.8-44.2-85.8-72.1-141.5-77.4C3202,1525.9,3197.2,1525.6,3192.3,1525.5L3192.3,1525.5z M3440.5,1773.3
		c-4.1,0.1-8.2,0.3-12.3,0.8c-0.1,4.8-0.3,9.7-0.7,14.5c-1,10.1-2.8,20.1-5.2,30c22.1-8.4,45.7-11.6,69.1-9.5
		c5.4,0.6,10.8,1.5,16.2,2.6v-23.6c-16.2-7.6-33.5-12.4-51.3-14.2C3451,1773.5,3445.8,1773.3,3440.5,1773.3L3440.5,1773.3z
		 M2931.5,2078.8c-0.1,0.1-0.3,0.3-0.4,0.4c0.4,0.3,0.9,0.6,1.3,0.8C2932.1,2079.6,2931.8,2079.2,2931.5,2078.8L2931.5,2078.8z
		 M3117.7,2105.1c-3.8,3.3-7.9,6.3-12,9.1c9.6,12.9,21,24.3,34,33.7C3130.2,2134.9,3122.8,2120.4,3117.7,2105.1L3117.7,2105.1z"/>
	<path id="path1860" inkscape:connector-curvature="0" class="st35" d="M2913.2,1240c0,41.2-63.6,74.6-142.1,74.6l0,0
		c-78.5,0-142.1-33.4-142.1-74.6l0,0c0-41.2,63.6-74.6,142.1-74.6C2849.5,1165.4,2913.2,1198.8,2913.2,1240z"/>
	
		<path id="path2735-3" inkscape:connector-curvature="0" inkscape:transform-center-x="4.3676448e-06" inkscape:transform-center-y="-3.0274907e-06" class="st15" d="
		M2995.7,4664.6c-11.6,0-39.1-137.1-47.3-145.3c-8.2-8.2-145.3-35.7-145.3-47.3c0-11.6,137.1-39.1,145.3-47.3
		c8.2-8.2,35.7-145.3,47.3-145.3c11.6,0,39.1,137.1,47.3,145.3c8.2,8.2,145.3,35.7,145.3,47.3c0,11.6-137.1,39.1-145.3,47.3
		C3034.8,4527.5,3007.2,4664.6,2995.7,4664.6z"/>
	
		<path id="path2737-3" inkscape:connector-curvature="0" inkscape:transform-center-x="4.3676448e-06" inkscape:transform-center-y="-3.0274907e-06" class="st15" d="
		M4197.2,2762.4c-11.6,0-39.1-137.1-47.3-145.3c-8.2-8.2-145.3-35.7-145.3-47.3c0-11.6,137.1-39.1,145.3-47.3
		c8.2-8.2,35.7-145.3,47.3-145.3c11.6,0,39.1,137.1,47.3,145.3c8.2,8.2,145.3,35.7,145.3,47.3c0,11.6-137.1,39.1-145.3,47.3
		C4236.4,2625.3,4208.8,2762.4,4197.2,2762.4z"/>
	
		<path id="path2739-0" inkscape:connector-curvature="0" inkscape:transform-center-x="4.3676448e-06" inkscape:transform-center-y="-3.0274907e-06" class="st15" d="
		M931.3,2139.2c-11.6,0-39.1-137.1-47.3-145.3c-8.2-8.2-145.3-35.7-145.3-47.3c0-11.6,137.1-39.1,145.3-47.3
		c8.2-8.2,35.7-145.3,47.3-145.3c11.6,0,39.1,137.1,47.3,145.3c8.2,8.2,145.3,35.7,145.3,47.3c0,11.6-137.1,39.1-145.3,47.3
		C970.4,2002.1,942.9,2139.2,931.3,2139.2z"/>
	
		<path id="path2741-3" inkscape:connector-curvature="0" inkscape:transform-center-x="4.3676448e-06" inkscape:transform-center-y="-3.0274907e-06" class="st15" d="
		M2084.8,720.6c-11.6,0-39.1-137.1-47.3-145.3c-8.2-8.2-145.3-35.7-145.3-47.3c0-11.6,137.1-39.1,145.3-47.3
		c8.2-8.2,35.7-145.3,47.3-145.3c11.6,0,39.1,137.1,47.3,145.3c8.2,8.2,145.3,35.7,145.3,47.3c0,11.6-137.1,39.1-145.3,47.3
		C2123.9,583.5,2096.4,720.6,2084.8,720.6z"/>
	
		<path id="path2743-7" inkscape:connector-curvature="0" inkscape:transform-center-x="4.3676448e-06" inkscape:transform-center-y="-3.0274907e-06" class="st15" d="
		M3887.9,941.6c-11.6,0-39.1-137.1-47.3-145.3c-8.2-8.2-145.3-35.7-145.3-47.3c0-11.6,137.1-39.1,145.3-47.3
		c8.2-8.2,35.7-145.3,47.3-145.3c11.6,0,39.1,137.1,47.3,145.3c8.2,8.2,145.3,35.7,145.3,47.3c0,11.6-137.1,39.1-145.3,47.3
		C3927,804.5,3899.5,941.6,3887.9,941.6z"/>
	<path id="rect1597" inkscape:connector-curvature="0" class="st16" d="M1680.9,1125.9c-120.9,0-218.3,94.7-218.3,212.4v2110.5
		c42.2,66.2,83.7,138.9,122.1,214c36.3,71.2,69.2,143.3,97.1,212.9h1303.5c-75.9-88.6-104.2-218.7-87-391.2
		c25.3-253.5,285.7-489.7,609.2-493.4V1338.3c0-117.7-97.4-212.4-218.3-212.4H1680.9z"/>
	<path id="path1600" inkscape:connector-curvature="0" sodipodi:nodetypes="zzzczccccc" class="st16" d="M3908.2,3107.7
		c-482.9-296.2-974.6,23.4-1009.9,376.7c-35.3,353.3,120.3,528.7,485,534.1c364.7,5.4,198.3,325.7,484.6,305.9
		C4139,4305.7,4391.2,3403.9,3908.2,3107.7L3908.2,3107.7z M3892,4012.9c40.9,23,55.3,74.9,32.3,115.7
		c-23,40.9-74.9,55.3-115.7,32.3c-40.9-23-55.3-74.9-32.3-115.7C3799.3,4004.3,3851.1,3989.9,3892,4012.9L3892,4012.9z"/>
	<path id="circle1605" inkscape:connector-curvature="0" class="st16" d="M3345.1,3385.5c-58.7,30.5-127.9,13.7-154.6-37.5
		c-26.7-51.2-0.7-117.4,58.1-147.8s127.9-13.7,154.6,37.5C3429.8,3288.9,3403.8,3355,3345.1,3385.5z"/>
	<path id="ellipse1609" inkscape:connector-curvature="0" class="st16" d="M3662.2,3371c-60.3-32.1-86.4-100.8-58.4-153.5
		c0,0,0,0,0,0c28-52.7,99.5-69.4,159.8-37.3l0,0c60.3,32.1,86.4,100.8,58.4,153.5c0,0,0,0,0,0
		C3794,3386.4,3722.4,3403.1,3662.2,3371L3662.2,3371z"/>
	<path id="ellipse1613" inkscape:connector-curvature="0" class="st16" d="M3826.7,3627.6c7.7,65.7,60.4,113.6,117.7,107l0,0
		c57.3-6.6,97.6-65.2,89.9-130.9c0,0,0,0,0,0c-7.7-65.7-60.4-113.6-117.7-107l0,0C3859.3,3503.3,3819,3561.9,3826.7,3627.6
		C3826.7,3627.6,3826.7,3627.6,3826.7,3627.6z"/>
	<path id="ellipse1615" inkscape:connector-curvature="0" class="st16" d="M3252.8,3637.7c-30.8-58.6-97.2-84.3-148.3-57.5
		s-67.6,95.9-36.8,154.5s97.2,84.3,148.3,57.5C3267.1,3765.5,3283.5,3696.3,3252.8,3637.7z"/>
	<path id="path1621" inkscape:connector-curvature="0" class="st16" d="M1119.5,3285.5c16.6,128.4,86.7,323.3,186.7,519.4
		c165.2,323.8,361.5,554.5,438.4,515.3c76.9-39.2,5.3-333.6-159.9-657.4c0,0,0,0,0,0c-100-196-216.7-367.1-310.9-456L1119.5,3285.5z
		"/>
	<path id="rect1623" inkscape:connector-curvature="0" class="st16" d="M1010.3,3131.4l202.9-103.5c45.2-23,100.5-4.5,124,41.6
		c23.5,46.1,6.1,101.8-39.1,124.8l-202.9,103.5c-45.2,23-100.5,4.5-124-41.6C947.7,3210.2,965.1,3154.5,1010.3,3131.4L1010.3,3131.4
		z"/>
	<path id="path1629" inkscape:connector-curvature="0" class="st16" d="M839.4,2546c0,0,77.9,49.9,31,289.4
		c-46.8,239.5,164.2,283.6,164.2,283.6l164-83.7C1299.5,2796,839.4,2546,839.4,2546z"/>
	<path id="path1640" inkscape:connector-curvature="0" sodipodi:nodetypes="ccccccccc" class="st16" d="M2049.2,2728.9l-586.5,602.4
		v117.4c42.2,66.2,83.7,138.9,122.1,214c35.7,70,68.1,140.9,95.7,209.4l37.8,3.5h1267.1c-51.8-60.4-81.4-140.2-89.6-239.5
		L2049.2,2728.9z"/>
	
		<path id="path1642" inkscape:connector-curvature="0" sodipodi:nodetypes="cccccccccccccccccccccccccccccccccccccccccccccccccccccccccccccccccccc" class="st16" d="
		M2972.1,2339.1l-645.8,686.7l569.5,610.3c-3.8-46.3-2.9-96.9,2.5-151.7c25.3-253.5,285.7-489.7,609.2-493.4V2845L2972.1,2339.1z
		 M2902.6,3689.7c0,0.2,0.1,0.3,0.1,0.5C2902.7,3690,2902.6,3689.8,2902.6,3689.7z M2907.7,3714.9c0,0.2,0.1,0.4,0.1,0.6
		C2907.8,3715.3,2907.8,3715.1,2907.7,3714.9z M2911.8,3731.5c0,0.1,0.1,0.3,0.1,0.4C2911.9,3731.7,2911.8,3731.6,2911.8,3731.5z
		 M2918.7,3754.8c0.1,0.4,0.2,0.7,0.4,1.1C2919,3755.5,2918.8,3755.1,2918.7,3754.8z M2921.4,3762.6c0,0.1,0.1,0.3,0.1,0.4
		C2921.5,3762.9,2921.4,3762.7,2921.4,3762.6z M2924.2,3770.3c0.1,0.2,0.1,0.4,0.2,0.6C2924.3,3770.7,2924.2,3770.5,2924.2,3770.3z
		 M2926.8,3777.3c0.1,0.4,0.3,0.8,0.4,1.1C2927.1,3778,2927,3777.6,2926.8,3777.3z M2933,3792.1c0.1,0.3,0.3,0.6,0.4,0.9
		C2933.3,3792.7,2933.2,3792.4,2933,3792.1z M2936.1,3798.8c0.2,0.4,0.3,0.7,0.5,1.1C2936.5,3799.5,2936.3,3799.2,2936.1,3798.8z
		 M2943,3812.8c0.2,0.4,0.5,0.9,0.7,1.3C2943.5,3813.6,2943.2,3813.2,2943,3812.8z M1656.4,3815.1c8,18.3,15.7,36.5,23,54.5
		C1672,3851.6,1664.3,3833.4,1656.4,3815.1z M2946.4,3819.2c0.2,0.5,0.5,0.9,0.7,1.4C2946.9,3820.1,2946.7,3819.6,2946.4,3819.2z
		 M2954.2,3832.6c0.3,0.5,0.6,0.9,0.8,1.3C2954.7,3833.5,2954.5,3833,2954.2,3832.6z M2958.1,3838.8c0.2,0.3,0.4,0.7,0.6,1
		C2958.5,3839.5,2958.3,3839.2,2958.1,3838.8z M2962.5,3845.6c0.3,0.4,0.5,0.8,0.8,1.2C2963,3846.3,2962.8,3846,2962.5,3845.6z
		 M2966.4,3851.2c0.4,0.5,0.8,1.1,1.1,1.6C2967.1,3852.3,2966.8,3851.7,2966.4,3851.2z M2971,3857.6c0.2,0.2,0.3,0.4,0.5,0.7
		C2971.3,3858,2971.2,3857.8,2971,3857.6z M2975.5,3863.6c0.4,0.5,0.7,1,1.1,1.4C2976.3,3864.5,2975.9,3864.1,2975.5,3863.6z
		 M2979.9,3869c0.4,0.5,0.8,1,1.2,1.4C2980.7,3870,2980.3,3869.5,2979.9,3869z M1680.4,3872.1l1.4,3.5h36.4L1680.4,3872.1z"/>
	<path id="path1656" inkscape:connector-curvature="0" class="st16" d="M3192.3,1525.5c-108.2-2.3-200.1,80.6-210.4,189.8
		c-1.3,13.6-1.2,27.4,0.1,41c0,0,0,0,0,0c-55.5-5.1-107.9,27.4-128.6,79.9c-11-4.4-22.6-7.2-34.4-8.3
		c-69.1-6.4-130.6,45.1-137.2,115.2c0,0,0,0,0,0c-6.6,70.1,44,132.1,113.1,138.5l0,0c37.7,3.5,74.9-10.4,101.5-37.8
		c20.8,32.1,55,52.9,92.8,56.5c33.8,3.1,67.5-7.8,93.4-30.2c19.7,59.3,72.1,101.3,133.7,107c69.2,6.4,134.5-34.1,160.5-99.5
		c15.7,7.2,32.4,11.7,49.5,13.3c27.9,2.5,56-2.6,81.4-14.7v-288c-16.2-7.6-33.5-12.4-51.3-14.2c-23.4-2.1-47,1.1-69.1,9.5
		c2.5-9.9,4.2-19.9,5.2-30c10.9-114.9-72.2-216.6-185.6-227.1c0,0,0,0,0,0l0,0C3202,1525.9,3197.1,1525.6,3192.3,1525.5
		L3192.3,1525.5z"/>
	<path id="path1658" inkscape:connector-curvature="0" class="st16" d="M1680.9,1125.9c-120.9,0-218.3,94.7-218.3,212.4v396.9
		c45.3,13.6,92.3,20.5,139.6,20.6c270.3,0,489.5-219.1,489.5-489.5c-0.1-47.6-7.2-94.8-21-140.3L1680.9,1125.9z"/>
	<path id="path1665" inkscape:connector-curvature="0" class="st16" d="M1680.9,1125.9c-120.9,0-218.3,94.7-218.3,212.4v629.7
		c16.9,3.4,122.3,179.5,139.6,179.5c17.2,0,122.7-176.2,139.6-179.5c16.9-3.4,181.7,119.1,197.7,112.5
		c15.9-6.6,45.9-209.7,60.2-219.3c14.3-9.6,213.5,40.5,225.6,28.3c12.2-12.2-37.8-211.3-28.3-225.6c9.6-14.3,212.7-44.3,219.3-60.2
		c6.6-15.9-115.8-180.7-112.5-197.7c3.4-16.9,179.5-122.3,179.5-139.6c0-17.2-176.2-122.7-179.5-139.6c0-0.2-0.1-0.5-0.1-0.8
		L1680.9,1125.9z"/>
	<path id="path1033" inkscape:connector-curvature="0" class="st16" d="M1442.9,4041.4c44.9-72.5,52.2-168.9,19.6-257
		c-42.9-115.6-145.6-193.8-253.6-193c28,69.7,60.9,142.1,97.3,213.4C1349.1,3888.7,1395.7,3969.4,1442.9,4041.4L1442.9,4041.4z"/>
	
		<path id="path2735" inkscape:connector-curvature="0" inkscape:transform-center-x="4.3676448e-06" inkscape:transform-center-y="-3.0274907e-06" class="st16" d="
		M2995.7,4664.6c-11.6,0-39.1-137.1-47.3-145.3c-8.2-8.2-145.3-35.7-145.3-47.3c0-11.6,137.1-39.1,145.3-47.3
		c8.2-8.2,35.7-145.3,47.3-145.3c11.6,0,39.1,137.1,47.3,145.3c8.2,8.2,145.3,35.7,145.3,47.3c0,11.6-137.1,39.1-145.3,47.3
		C3034.8,4527.5,3007.2,4664.6,2995.7,4664.6z"/>
	
		<path id="path2737" inkscape:connector-curvature="0" inkscape:transform-center-x="4.3676448e-06" inkscape:transform-center-y="-3.0274907e-06" class="st16" d="
		M4197.2,2762.4c-11.6,0-39.1-137.1-47.3-145.3c-8.2-8.2-145.3-35.7-145.3-47.3c0-11.6,137.1-39.1,145.3-47.3
		c8.2-8.2,35.7-145.3,47.3-145.3c11.6,0,39.1,137.1,47.3,145.3c8.2,8.2,145.3,35.7,145.3,47.3c0,11.6-137.1,39.1-145.3,47.3
		C4236.4,2625.3,4208.8,2762.4,4197.2,2762.4z"/>
	
		<path id="path2739" inkscape:connector-curvature="0" inkscape:transform-center-x="4.3676448e-06" inkscape:transform-center-y="-3.0274907e-06" class="st16" d="
		M931.3,2139.2c-11.6,0-39.1-137.1-47.3-145.3c-8.2-8.2-145.3-35.7-145.3-47.3c0-11.6,137.1-39.1,145.3-47.3
		c8.2-8.2,35.7-145.3,47.3-145.3c11.6,0,39.1,137.1,47.3,145.3c8.2,8.2,145.3,35.7,145.3,47.3c0,11.6-137.1,39.1-145.3,47.3
		C970.4,2002.1,942.9,2139.2,931.3,2139.2z"/>
	
		<path id="path2741" inkscape:connector-curvature="0" inkscape:transform-center-x="4.3676448e-06" inkscape:transform-center-y="-3.0274907e-06" class="st16" d="
		M2084.8,720.6c-11.6,0-39.1-137.1-47.3-145.3c-8.2-8.2-145.3-35.7-145.3-47.3c0-11.6,137.1-39.1,145.3-47.3
		c8.2-8.2,35.7-145.3,47.3-145.3c11.6,0,39.1,137.1,47.3,145.3c8.2,8.2,145.3,35.7,145.3,47.3c0,11.6-137.1,39.1-145.3,47.3
		C2123.9,583.5,2096.4,720.6,2084.8,720.6z"/>
	
		<path id="path2743" inkscape:connector-curvature="0" inkscape:transform-center-x="4.3676448e-06" inkscape:transform-center-y="-3.0274907e-06" class="st16" d="
		M3887.9,941.6c-11.6,0-39.1-137.1-47.3-145.3c-8.2-8.2-145.3-35.7-145.3-47.3c0-11.6,137.1-39.1,145.3-47.3
		c8.2-8.2,35.7-145.3,47.3-145.3c11.6,0,39.1,137.1,47.3,145.3s145.3,35.7,145.3,47.3c0,11.6-137.1,39.1-145.3,47.3
		C3927,804.5,3899.5,941.6,3887.9,941.6z"/>
	<circle id="circle2879" cx="2383.3" cy="733.7" r="42.1"/>
	<circle id="circle2883" cx="1755.2" cy="836.8" r="32.7"/>
	<circle id="circle2885" cx="3602.1" cy="964.9" r="35.8"/>
	<circle id="circle2887" cx="3862.6" cy="2141.6" r="35.8"/>
	<circle id="circle2889" cx="3992.3" cy="2812" r="49.9"/>
	<circle id="circle2891" cx="2600.1" cy="4201" r="53"/>
	<circle id="circle2893" cx="3286" cy="4347.9" r="34.3"/>
	<circle id="circle2895" cx="1058.3" cy="4065" r="53"/>
	<circle id="circle2897" cx="1127.3" cy="2227.8" r="47.8"/>
	<circle id="circle2899" cx="1181.5" cy="1477.6" r="31.2"/>
</g>
</svg>
