<!-- Generator: Adobe Illustrator 22.1.0, SVG Export Plug-In . SVG Version: 6.00 Build 0)  -->
<svg  fill="#ffffff" version="1.1" id="Layer_1" xmlns="http://www.w3.org/2000/svg" xmlns:xlink="http://www.w3.org/1999/xlink" x="0px" y="0px"
	 viewBox="0 0 180.9 48" style="enable-background:new 0 0 180.9 48;" xml:space="preserve">
<g id="zaraw-logo" transform="translate(-35.833 -13.986)">
	<path id="Path_1857" d="M45,28.6l19.7-12c-12-3.4-24.5,3.5-27.9,15.4c-0.6,1.9-0.9,3.9-0.9,6c0,7.9,4.2,15.1,11,19.1l0.4,4.9
		l8.9-31.4l-12.8,7.9L45,28.6z"/>
	<path id="Path_1858" d="M69.2,18.5L68.9,14l-8.6,31.7l13.2-8.5L72,46.9L51.7,59.3c2.2,0.7,4.4,1,6.7,1c12.3,0.2,22.4-9.7,22.5-22
		C81,30,76.5,22.4,69.2,18.5L69.2,18.5z"/>
	<path id="Path_1859" d="M95.9,34.8l6.7-10.5v-3H91V25h6.5l-6.6,10.5v3.1h11.9v-3.8L95.9,34.8z"/>
	<path id="Path_1860" d="M114.4,21.2h-5.1l-5.9,17.4h4.3l0.9-2.7h6.7l0.9,2.7h4L114.4,21.2z M109.9,32.1l2-6.4l2.2,6.4H109.9z"/>
	<path id="Path_1861" d="M131.5,32.2c0.9-0.5,1.7-1.2,2.3-2.1c0.6-0.9,0.9-1.9,0.9-2.9c0-3.3-2.6-5.9-5.9-5.9c0,0-0.1,0-0.1,0h-6.9
		v17.4h4v-5.7h1.9l3.3,5.7v0h4.3L131.5,32.2z M130.2,28.7c-0.3,0.4-0.9,0.7-1.4,0.7h-3v-4.5h3c0.5,0,1.1,0.2,1.4,0.7
		c0.4,0.4,0.6,1,0.6,1.6C130.8,27.7,130.6,28.3,130.2,28.7L130.2,28.7z"/>
	<path id="Path_1862" d="M146.6,21.2h-5.1l-5.9,17.4h4.3l0.9-2.7h6.7l0.9,2.7h4.1L146.6,21.2z M142,32.1l2-6.4l2.2,6.4H142z"/>
	<path id="Path_1863" d="M171.9,21.2l-3,12.2l-3.4-12.2h-3.2l-3.4,12.2l-3-12.2h-4.2l4.8,17.4h4.5l2.8-10.3l2.8,10.3h4.5l4.8-17.4
		L171.9,21.2z"/>
	<path id="Path_1864" d="M179.4,34.9c-0.4-0.5-1-0.7-1.7-0.7c-0.6,0-1.2,0.3-1.7,0.7c-0.9,0.9-0.9,2.4,0,3.3c0,0,0,0,0,0
		c0.4,0.5,1,0.7,1.7,0.7c0.6,0,1.2-0.2,1.7-0.7C180.3,37.3,180.3,35.8,179.4,34.9C179.4,34.9,179.4,34.9,179.4,34.9z"/>
	<path id="Path_1865" d="M196.1,21.2l-4.7,7.7l-4.7-7.7h-4v17.4h4V28.5l4.5,7.4h0.4l4.5-7.4v10.1h4V21.2H196.1z"/>
	<path id="Path_1866" d="M212.7,21.2v9.4l-6.7-9.4h-3v17.4h4v-9.4l6.7,9.4h3V21.2H212.7z"/>
	<path id="Path_1867" d="M99.5,51.1c-0.2-0.3-0.5-0.6-0.9-0.7c0.6-0.3,1-1,1-1.6c0-0.6-0.2-1.2-0.7-1.6c-0.5-0.4-1.1-0.6-1.8-0.6
		c-1.1-0.1-2.1,0.5-2.5,1.6l0.9,0.5c0.2-0.7,0.9-1.2,1.7-1.1c0.4,0,0.8,0.1,1.1,0.4c0.3,0.2,0.4,0.5,0.4,0.9c0,0.3-0.1,0.7-0.4,0.9
		c-0.3,0.2-0.7,0.4-1.1,0.4h-0.6v0.9h0.9c0.4,0,0.8,0.1,1.1,0.4c0.3,0.2,0.4,0.6,0.4,1c0,0.4-0.2,0.7-0.4,0.9
		c-0.4,0.3-0.8,0.4-1.2,0.4c-0.9,0.1-1.7-0.4-1.9-1.3l-0.9,0.5c0.2,0.5,0.5,1,0.9,1.3c0.5,0.3,1.1,0.5,1.8,0.5
		c0.7,0,1.4-0.2,1.9-0.6c0.5-0.4,0.7-1,0.7-1.6C99.9,51.8,99.7,51.4,99.5,51.1z"/>
	<path id="Path_1868" d="M104.3,46.7h-1.1l-2.8,7.6h1.1l0.6-1.7h3.4l0.6,1.7h1.1L104.3,46.7z M102.4,51.6l1.4-3.8l1.4,3.8H102.4z"/>
	<path id="Path_1869" d="M112.5,47.4c-0.5-0.5-1.1-0.7-1.8-0.7H108v7.6h1v-2.7h1.8c1.4,0,2.5-1.1,2.5-2.5
		C113.2,48.4,113,47.8,112.5,47.4L112.5,47.4z M111.8,50.2c-0.3,0.3-0.7,0.4-1.1,0.4v0H109v-3h1.8c0.8,0,1.4,0.6,1.5,1.4
		c0,0,0,0.1,0,0.1C112.3,49.5,112.1,49.9,111.8,50.2L111.8,50.2z"/>
	<g id="Group_1580" transform="translate(114.441 46.661)">
		<path id="Path_1870" d="M2.8,2.7H1V0H0v7.6h2.8c1.3,0,2.4-1.1,2.4-2.4C5.2,3.8,4.1,2.7,2.8,2.7C2.8,2.7,2.8,2.7,2.8,2.7L2.8,2.7z
			 M3.8,6.3C3.5,6.5,3.2,6.7,2.8,6.7H1v-3h1.8c0.8,0,1.4,0.6,1.5,1.4c0,0,0,0.1,0,0.1C4.3,5.6,4.1,6,3.8,6.3L3.8,6.3z"/>
		<rect id="Rectangle_574" x="6" y="0" width="1" height="7.6"/>
	</g>
	<path id="Path_1871" d="M127.8,46.7v3.2h-3.7v-3.2h-1v7.6h1v-3.4h3.7v3.4h1v-7.6H127.8z"/>
	<path id="Path_1872" d="M137.8,46.7v3.2h-3.7v-3.2h-1v7.6h1v-3.4h3.7v3.4h1v-7.6H137.8z"/>
	<path id="Path_1873" d="M146.1,47.7c-0.7-0.8-1.8-1.2-2.8-1.1c-0.7,0-1.3,0.2-1.9,0.5c-0.6,0.3-1,0.8-1.4,1.4l0.9,0.5
		c0.2-0.4,0.6-0.8,1-1c0.4-0.2,0.9-0.4,1.4-0.4c0.7,0,1.4,0.2,2,0.7c0.5,0.5,0.9,1.1,0.9,1.8h-3.9v1h3.9c-0.1,0.7-0.4,1.3-0.9,1.8
		c-1,0.8-2.3,0.9-3.4,0.3c-0.4-0.2-0.7-0.6-1-1l-0.9,0.5c0.3,0.6,0.8,1,1.4,1.4c0.6,0.3,1.3,0.5,1.9,0.5c1.1,0,2.1-0.4,2.8-1.1
		c0.7-0.7,1.1-1.8,1.1-2.8C147.2,49.4,146.8,48.4,146.1,47.7z"/>
	<path id="Path_1874" d="M148.4,46.7v7.6h1v-6.7h3.3v-0.9H148.4z"/>
	<path id="Path_1875" d="M158.8,53.3L158.8,53.3l0-6.6h-4.9v4c0.1,0.9-0.2,1.9-0.7,2.7h-0.7v2.4h1v-1.5h5v1.5h1v-2.4L158.8,53.3z
		 M157.8,53.3h-3.4c0.4-0.8,0.6-1.7,0.6-2.7v-3.1h2.8L157.8,53.3z"/>
	<path id="Path_1876" d="M165.7,53.1c-0.4,0.2-0.9,0.4-1.4,0.4c-1.6,0.1-2.9-1.2-3-2.8c0-0.1,0-0.1,0-0.2c0-1.6,1.2-2.9,2.8-3
		c0.1,0,0.1,0,0.2,0c0.5,0,1,0.1,1.4,0.4c0.4,0.2,0.7,0.6,1,1l0.9-0.5c-0.3-0.6-0.8-1-1.4-1.4c-1.6-0.9-3.5-0.6-4.8,0.6
		c-1.5,1.5-1.6,4,0,5.6c0.8,0.8,1.8,1.2,2.9,1.2c0.7,0,1.3-0.2,1.9-0.5c0.6-0.3,1-0.8,1.4-1.4l-0.9-0.5
		C166.4,52.5,166.1,52.9,165.7,53.1z"/>
	<path id="Path_1877" d="M174.3,47.7c-0.7-0.8-1.8-1.2-2.8-1.1c-0.7,0-1.3,0.2-1.9,0.5c-0.6,0.3-1,0.8-1.4,1.4l0.9,0.5
		c0.2-0.4,0.6-0.8,1-1c0.4-0.2,0.9-0.4,1.4-0.4c0.7,0,1.4,0.2,2,0.7c0.5,0.5,0.9,1.1,0.9,1.8h-3.9v1h3.9c-0.1,0.7-0.4,1.3-0.9,1.8
		c-1,0.8-2.3,0.9-3.4,0.3c-0.4-0.2-0.8-0.6-1-1l-0.9,0.5c0.3,0.6,0.8,1,1.4,1.4c0.6,0.3,1.3,0.5,1.9,0.5c1.1,0,2.1-0.4,2.8-1.1
		C175.8,51.7,175.8,49.2,174.3,47.7L174.3,47.7z"/>
	<path id="Path_1878" d="M181.4,46.7v3.2h-3.7v-3.2h-1v7.6h1v-3.4h3.7v3.4h1v-7.6H181.4z"/>
	<path id="Path_1879" d="M191.7,53.1c-0.4,0.2-0.9,0.4-1.4,0.4c-1.6,0.1-2.9-1.2-3-2.8c0-0.1,0-0.1,0-0.2c0-1.6,1.2-2.9,2.8-3
		c0.1,0,0.1,0,0.2,0c0.5,0,1,0.1,1.4,0.4c0.4,0.2,0.7,0.6,1,1l0.9-0.5c-0.3-0.6-0.8-1-1.4-1.4c-1.6-0.9-3.5-0.6-4.8,0.6
		c-1.5,1.5-1.6,4,0,5.6c0.8,0.8,1.8,1.2,2.9,1.2c0.7,0,1.3-0.2,1.9-0.5c0.6-0.3,1-0.8,1.4-1.4l-0.9-0.5
		C192.5,52.5,192.2,52.9,191.7,53.1z"/>
	<path id="Path_1880" d="M197.9,46.7h-1.1l-2.8,7.6h1.1l0.6-1.7h3.4l0.6,1.7h1.1L197.9,46.7z M195.9,51.6l1.4-3.8l1.4,3.8H195.9z"/>
	<g id="Group_1581" transform="translate(201.617 45.01)">
		<path id="Path_1881" d="M4.9,1.7L1,7.3V1.7H0v7.6h0.8l3.9-5.7v5.7h1V1.7H4.9z"/>
		<rect id="Rectangle_575" x="1.4" y="0" width="2.9" height="0.8"/>
	</g>
	<path id="Path_1882" d="M208.4,46.7v1h2.2v6.6h1v-6.7h2.3v-0.9H208.4z"/>
</g>
</svg>
